<svg width="2973" height="1785" xmlns="http://www.w3.org/2000/svg" xmlns:xlink="http://www.w3.org/1999/xlink" xml:space="preserve" overflow="hidden"><defs><clipPath id="clip0"><rect x="814" y="873" width="2973" height="1785"/></clipPath></defs><g clip-path="url(#clip0)" transform="translate(-814 -873)"><rect x="815" y="874" width="2970" height="1782" fill="#FFFFFF"/><g><path d="M1106.5 2159.57 3499.5 2159.57M1106.5 1983.57 3499.5 1983.57M1106.5 1806.56 3499.5 1806.56M1106.5 1630.55 3499.5 1630.55M1106.5 1453.55 3499.5 1453.55M1106.5 1277.54 3499.5 1277.54M1106.5 1100.54 3499.5 1100.54M1106.5 923.5 3499.5 923.5" stroke="#D9D9D9" stroke-width="3.4375" stroke-linejoin="round" stroke-miterlimit="10" fill="none"/></g><g><path d="M1356.04 2267.07 1455.05 2267.07 1455.05 2336 1356.04 2336ZM1954.06 2071.07 2054.07 2071.07 2054.07 2336 1954.06 2336ZM2552.08 2117.07 2652.09 2117.07 2652.09 2336 2552.08 2336ZM3150.1 1562.05 3250.11 1562.05 3250.11 2336 3150.1 2336Z" fill="#47D45A"/></g><g><path d="M1356.04 2196.07 1455.05 2196.07 1455.05 2267.07 1356.04 2267.07ZM1954.06 2023.07 2054.07 2023.07 2054.07 2071.07 1954.06 2071.07ZM2552.08 1624.05 2652.09 1624.05 2652.09 2117.07 2552.08 2117.07ZM3150.1 1060.03 3250.11 1060.03 3250.11 1562.05 3150.1 1562.05Z" fill="#FFC000"/></g><g><path d="M1518.05 2068.07 1592.05 2068.07 1592.05 2336 1518.05 2336ZM2116.07 2205.07 2191.07 2205.07 2191.07 2336 2116.07 2336ZM2714.09 2258.07 2789.09 2258.07 2789.09 2336 2714.09 2336ZM3313.11 1123.04 3387.11 1123.04 3387.11 2336 3313.11 2336Z" fill="#7030A0"/></g><g><path d="M1106.5 2336.5 3499.5 2336.5" stroke="#D9D9D9" stroke-width="3.4375" stroke-linejoin="round" stroke-miterlimit="10" fill="none" fill-rule="evenodd"/></g><g><text fill="#595959" font-family="Aptos Narrow,Aptos Narrow_MSFontService,sans-serif" font-weight="400" font-stretch="semi-condensed" font-size="41" transform="matrix(1 0 0 1 3537.7 2348)">0</text></g><g><text fill="#595959" font-family="Aptos Narrow,Aptos Narrow_MSFontService,sans-serif" font-weight="400" font-stretch="semi-condensed" font-size="41" transform="matrix(1 0 0 1 3537.7 2171)">5</text></g><g><text fill="#595959" font-family="Aptos Narrow,Aptos Narrow_MSFontService,sans-serif" font-weight="400" font-stretch="semi-condensed" font-size="41" transform="matrix(1 0 0 1 3537.7 1995)">10</text></g><g><text fill="#595959" font-family="Aptos Narrow,Aptos Narrow_MSFontService,sans-serif" font-weight="400" font-stretch="semi-condensed" font-size="41" transform="matrix(1 0 0 1 3537.7 1818)">15</text></g><g><text fill="#595959" font-family="Aptos Narrow,Aptos Narrow_MSFontService,sans-serif" font-weight="400" font-stretch="semi-condensed" font-size="41" transform="matrix(1 0 0 1 3537.7 1642)">20</text></g><g><text fill="#595959" font-family="Aptos Narrow,Aptos Narrow_MSFontService,sans-serif" font-weight="400" font-stretch="semi-condensed" font-size="41" transform="matrix(1 0 0 1 3537.7 1465)">25</text></g><g><text fill="#595959" font-family="Aptos Narrow,Aptos Narrow_MSFontService,sans-serif" font-weight="400" font-stretch="semi-condensed" font-size="41" transform="matrix(1 0 0 1 3537.7 1289)">30</text></g><g><text fill="#595959" font-family="Aptos Narrow,Aptos Narrow_MSFontService,sans-serif" font-weight="400" font-stretch="semi-condensed" font-size="41" transform="matrix(1 0 0 1 3537.7 1112)">35</text></g><g><text fill="#595959" font-family="Aptos Narrow,Aptos Narrow_MSFontService,sans-serif" font-weight="400" font-stretch="semi-condensed" font-size="41" transform="matrix(1 0 0 1 3537.7 936)">40</text></g><g><text fill="#595959" font-family="Aptos Narrow,Aptos Narrow_MSFontService,sans-serif" font-weight="400" font-stretch="semi-condensed" font-size="41" transform="matrix(1 0 0 1 1047.35 2348)">0</text></g><g><text fill="#595959" font-family="Aptos Narrow,Aptos Narrow_MSFontService,sans-serif" font-weight="400" font-stretch="semi-condensed" font-size="41" transform="matrix(1 0 0 1 953.024 2171)">10,000</text></g><g><text fill="#595959" font-family="Aptos Narrow,Aptos Narrow_MSFontService,sans-serif" font-weight="400" font-stretch="semi-condensed" font-size="41" transform="matrix(1 0 0 1 953.024 1995)">20,000</text></g><g><text fill="#595959" font-family="Aptos Narrow,Aptos Narrow_MSFontService,sans-serif" font-weight="400" font-stretch="semi-condensed" font-size="41" transform="matrix(1 0 0 1 953.024 1818)">30,000</text></g><g><text fill="#595959" font-family="Aptos Narrow,Aptos Narrow_MSFontService,sans-serif" font-weight="400" font-stretch="semi-condensed" font-size="41" transform="matrix(1 0 0 1 953.024 1642)">40,000</text></g><g><text fill="#595959" font-family="Aptos Narrow,Aptos Narrow_MSFontService,sans-serif" font-weight="400" font-stretch="semi-condensed" font-size="41" transform="matrix(1 0 0 1 953.024 1465)">50,000</text></g><g><text fill="#595959" font-family="Aptos Narrow,Aptos Narrow_MSFontService,sans-serif" font-weight="400" font-stretch="semi-condensed" font-size="41" transform="matrix(1 0 0 1 953.024 1289)">60,000</text></g><g><text fill="#595959" font-family="Aptos Narrow,Aptos Narrow_MSFontService,sans-serif" font-weight="400" font-stretch="semi-condensed" font-size="41" transform="matrix(1 0 0 1 953.024 1112)">70,000</text></g><g><text fill="#595959" font-family="Aptos Narrow,Aptos Narrow_MSFontService,sans-serif" font-weight="400" font-stretch="semi-condensed" font-size="41" transform="matrix(1 0 0 1 953.024 936)">80,000</text></g><g><text fill="#595959" font-family="Aptos Narrow,Aptos Narrow_MSFontService,sans-serif" font-weight="400" font-stretch="semi-condensed" font-size="41" transform="matrix(1 0 0 1 1280.99 2401)">Python/Pandas</text></g><g><text fill="#595959" font-family="Aptos Narrow,Aptos Narrow_MSFontService,sans-serif" font-weight="400" font-stretch="semi-condensed" font-size="41" transform="matrix(1 0 0 1 1886.45 2401)">Dataframe-EC</text></g><g><text fill="#595959" font-family="Aptos Narrow,Aptos Narrow_MSFontService,sans-serif" font-weight="400" font-stretch="semi-condensed" font-size="41" transform="matrix(1 0 0 1 2524.76 2401)">Tablesaw</text></g><g><text fill="#595959" font-family="Aptos Narrow,Aptos Narrow_MSFontService,sans-serif" font-weight="400" font-stretch="semi-condensed" font-size="41" transform="matrix(1 0 0 1 3153.09 2401)">Kotlin</text></g><g><text fill="#262626" font-family="Aptos Narrow,Aptos Narrow_MSFontService,sans-serif" font-weight="700" font-stretch="semi-condensed" font-size="55" transform="matrix(6.12323e-17 -1 1 6.12323e-17 3645.25 1735)">Heap, GB</text></g><g><text fill="#262626" font-family="Aptos Narrow,Aptos Narrow_MSFontService,sans-serif" font-weight="700" font-stretch="semi-condensed" font-size="55" transform="matrix(6.12323e-17 -1 1 6.12323e-17 924.127 1732)">Time, ms</text></g><g><text fill="#262626" font-family="Aptos Narrow,Aptos Narrow_MSFontService,sans-serif" font-weight="700" font-stretch="semi-condensed" font-size="55" transform="matrix(1 0 0 1 2176.44 2478)">Framework</text></g><g><rect x="1864" y="2578" width="22.9996" height="23" fill="#47D45A"/></g><g><text fill="#595959" font-family="Aptos Narrow,Aptos Narrow_MSFontService,sans-serif" font-weight="400" font-stretch="semi-condensed" font-size="41" transform="matrix(1 0 0 1 1896.56 2601)">Time to Load</text></g><g><rect x="2160" y="2578" width="22" height="23" fill="#FFC000"/></g><g><text fill="#595959" font-family="Aptos Narrow,Aptos Narrow_MSFontService,sans-serif" font-weight="400" font-stretch="semi-condensed" font-size="41" transform="matrix(1 0 0 1 2191.88 2601)">Time to Aggregate</text></g><g><rect x="2537" y="2578" width="22" height="23" fill="#7030A0"/></g><g><text fill="#595959" font-family="Aptos Narrow,Aptos Narrow_MSFontService,sans-serif" font-weight="400" font-stretch="semi-condensed" font-size="41" transform="matrix(1 0 0 1 2569.01 2601)">Max Heap*</text></g><rect x="815.5" y="874.5" width="2970" height="1782" stroke="#D9D9D9" stroke-width="3.4375" stroke-linejoin="round" stroke-miterlimit="10" fill="none"/></g></svg>