<svg width="3303" height="1785" xmlns="http://www.w3.org/2000/svg" xmlns:xlink="http://www.w3.org/1999/xlink" xml:space="preserve" overflow="hidden"><defs><clipPath id="clip0"><rect x="814" y="873" width="3303" height="1785"/></clipPath></defs><g clip-path="url(#clip0)" transform="translate(-814 -873)"><rect x="815" y="874" width="3300" height="1782" fill="#FFFFFF"/><g><path d="M1127.5 2137.57 3829.5 2137.57M1127.5 1985.57 3829.5 1985.57M1127.5 1834.56 3829.5 1834.56M1127.5 1682.56 3829.5 1682.56M1127.5 1530.55 3829.5 1530.55M1127.5 1379.55 3829.5 1379.55M1127.5 1227.54 3829.5 1227.54M1127.5 1075.54 3829.5 1075.54M1127.5 923.5 3829.5 923.5" stroke="#D9D9D9" stroke-width="3.4375" stroke-linejoin="round" stroke-miterlimit="10" fill="none"/></g><g><path d="M1315.04 2139.07 1390.05 2139.07 1390.05 2289 1315.04 2289ZM1765.06 1846.06 1840.06 1846.06 1840.06 2289 1765.06 2289ZM2216.07 1888.06 2291.08 1888.06 2291.08 2289 2216.07 2289ZM2666.09 1921.06 2741.09 1921.06 2741.09 2289 2666.09 2289ZM3116.1 1949.06 3191.1 1949.06 3191.1 2289 3116.1 2289Z" fill="#47D45A"/></g><g><path d="M1315.04 1918.06 1390.05 1918.06 1390.05 2139.07 1315.04 2139.07ZM1765.06 1746.06 1840.06 1746.06 1840.06 1846.06 1765.06 1846.06ZM2216.07 1807.06 2291.08 1807.06 2291.08 1888.06 2216.07 1888.06ZM2666.09 1045.03 2741.09 1045.03 2741.09 1921.06 2666.09 1921.06ZM3116.1 1138.04 3191.1 1138.04 3191.1 1949.06 3116.1 1949.06Z" fill="#FFC000"/></g><g><path d="M1437.05 1158.04 1493.05 1158.04 1493.05 2289 1437.05 2289ZM1887.06 1954.06 1944.06 1954.06 1944.06 2289 1887.06 2289ZM2338.08 1619.05 2394.08 1619.05 2394.08 2289 2338.08 2289ZM2788.09 1954.06 2844.09 1954.06 2844.09 2289 2788.09 2289ZM3238.11 1841.06 3295.11 1841.06 3295.11 2289 3238.11 2289Z" fill="#7030A0"/></g><g><path d="M1127.5 2289.5 3829.5 2289.5" stroke="#D9D9D9" stroke-width="3.4375" stroke-linejoin="round" stroke-miterlimit="10" fill="none" fill-rule="evenodd"/></g><g><text fill="#595959" font-family="Aptos Narrow,Aptos Narrow_MSFontService,sans-serif" font-weight="400" font-stretch="semi-condensed" font-size="41" transform="matrix(1 0 0 1 3867.7 2301)">0</text></g><g><text fill="#595959" font-family="Aptos Narrow,Aptos Narrow_MSFontService,sans-serif" font-weight="400" font-stretch="semi-condensed" font-size="41" transform="matrix(1 0 0 1 3867.7 2106)">10</text></g><g><text fill="#595959" font-family="Aptos Narrow,Aptos Narrow_MSFontService,sans-serif" font-weight="400" font-stretch="semi-condensed" font-size="41" transform="matrix(1 0 0 1 3867.7 1911)">20</text></g><g><text fill="#595959" font-family="Aptos Narrow,Aptos Narrow_MSFontService,sans-serif" font-weight="400" font-stretch="semi-condensed" font-size="41" transform="matrix(1 0 0 1 3867.7 1716)">30</text></g><g><text fill="#595959" font-family="Aptos Narrow,Aptos Narrow_MSFontService,sans-serif" font-weight="400" font-stretch="semi-condensed" font-size="41" transform="matrix(1 0 0 1 3867.7 1521)">40</text></g><g><text fill="#595959" font-family="Aptos Narrow,Aptos Narrow_MSFontService,sans-serif" font-weight="400" font-stretch="semi-condensed" font-size="41" transform="matrix(1 0 0 1 3867.7 1326)">50</text></g><g><text fill="#595959" font-family="Aptos Narrow,Aptos Narrow_MSFontService,sans-serif" font-weight="400" font-stretch="semi-condensed" font-size="41" transform="matrix(1 0 0 1 3867.7 1131)">60</text></g><g><text fill="#595959" font-family="Aptos Narrow,Aptos Narrow_MSFontService,sans-serif" font-weight="400" font-stretch="semi-condensed" font-size="41" transform="matrix(1 0 0 1 3867.7 936)">70</text></g><g><text fill="#595959" font-family="Aptos Narrow,Aptos Narrow_MSFontService,sans-serif" font-weight="400" font-stretch="semi-condensed" font-size="41" transform="matrix(1 0 0 1 1068.25 2301)">0</text></g><g><text fill="#595959" font-family="Aptos Narrow,Aptos Narrow_MSFontService,sans-serif" font-weight="400" font-stretch="semi-condensed" font-size="41" transform="matrix(1 0 0 1 973.924 2149)">50,000</text></g><g><text fill="#595959" font-family="Aptos Narrow,Aptos Narrow_MSFontService,sans-serif" font-weight="400" font-stretch="semi-condensed" font-size="41" transform="matrix(1 0 0 1 953.024 1998)">100,000</text></g><g><text fill="#595959" font-family="Aptos Narrow,Aptos Narrow_MSFontService,sans-serif" font-weight="400" font-stretch="semi-condensed" font-size="41" transform="matrix(1 0 0 1 953.024 1846)">150,000</text></g><g><text fill="#595959" font-family="Aptos Narrow,Aptos Narrow_MSFontService,sans-serif" font-weight="400" font-stretch="semi-condensed" font-size="41" transform="matrix(1 0 0 1 953.024 1694)">200,000</text></g><g><text fill="#595959" font-family="Aptos Narrow,Aptos Narrow_MSFontService,sans-serif" font-weight="400" font-stretch="semi-condensed" font-size="41" transform="matrix(1 0 0 1 953.024 1542)">250,000</text></g><g><text fill="#595959" font-family="Aptos Narrow,Aptos Narrow_MSFontService,sans-serif" font-weight="400" font-stretch="semi-condensed" font-size="41" transform="matrix(1 0 0 1 953.024 1391)">300,000</text></g><g><text fill="#595959" font-family="Aptos Narrow,Aptos Narrow_MSFontService,sans-serif" font-weight="400" font-stretch="semi-condensed" font-size="41" transform="matrix(1 0 0 1 953.024 1239)">350,000</text></g><g><text fill="#595959" font-family="Aptos Narrow,Aptos Narrow_MSFontService,sans-serif" font-weight="400" font-stretch="semi-condensed" font-size="41" transform="matrix(1 0 0 1 953.024 1087)">400,000</text></g><g><text fill="#595959" font-family="Aptos Narrow,Aptos Narrow_MSFontService,sans-serif" font-weight="400" font-stretch="semi-condensed" font-size="41" transform="matrix(1 0 0 1 953.024 936)">450,000</text></g><g><text fill="#595959" font-family="Aptos Narrow,Aptos Narrow_MSFontService,sans-serif" font-weight="400" font-stretch="semi-condensed" font-size="41" transform="matrix(1 0 0 1 1224.06 2354)">Python/Pandas</text></g><g><text fill="#595959" font-family="Aptos Narrow,Aptos Narrow_MSFontService,sans-serif" font-weight="400" font-stretch="semi-condensed" font-size="41" transform="matrix(1 0 0 1 1685.46 2354)">Dataframe-EC</text></g><g><text fill="#595959" font-family="Aptos Narrow,Aptos Narrow_MSFontService,sans-serif" font-weight="400" font-stretch="semi-condensed" font-size="41" transform="matrix(1 0 0 1 1727.32 2405)">-Xmx16G</text></g><g><text fill="#595959" font-family="Aptos Narrow,Aptos Narrow_MSFontService,sans-serif" font-weight="400" font-stretch="semi-condensed" font-size="41" transform="matrix(1 0 0 1 2135.86 2354)">Dataframe-EC</text></g><g><text fill="#595959" font-family="Aptos Narrow,Aptos Narrow_MSFontService,sans-serif" font-weight="400" font-stretch="semi-condensed" font-size="41" transform="matrix(1 0 0 1 2177.72 2405)">-Xmx32G</text></g><g><text fill="#595959" font-family="Aptos Narrow,Aptos Narrow_MSFontService,sans-serif" font-weight="400" font-stretch="semi-condensed" font-size="41" transform="matrix(1 0 0 1 2626.25 2354)">Tablesaw</text></g><g><text fill="#595959" font-family="Aptos Narrow,Aptos Narrow_MSFontService,sans-serif" font-weight="400" font-stretch="semi-condensed" font-size="41" transform="matrix(1 0 0 1 2628.11 2405)">-Xmx16G</text></g><g><text fill="#595959" font-family="Aptos Narrow,Aptos Narrow_MSFontService,sans-serif" font-weight="400" font-stretch="semi-condensed" font-size="41" transform="matrix(1 0 0 1 3076.64 2354)">Tablesaw</text></g><g><text fill="#595959" font-family="Aptos Narrow,Aptos Narrow_MSFontService,sans-serif" font-weight="400" font-stretch="semi-condensed" font-size="41" transform="matrix(1 0 0 1 3078.51 2405)">-Xmx32G</text></g><g><text fill="#595959" font-family="Aptos Narrow,Aptos Narrow_MSFontService,sans-serif" font-weight="400" font-stretch="semi-condensed" font-size="41" transform="matrix(1 0 0 1 3557.05 2354)">Kotlin</text></g><g><text fill="#595959" font-family="Aptos Narrow,Aptos Narrow_MSFontService,sans-serif" font-weight="400" font-stretch="semi-condensed" font-size="41" transform="matrix(1 0 0 1 3528.91 2405)">-Xmx52G</text></g><g><text fill="#262626" font-family="Aptos Narrow,Aptos Narrow_MSFontService,sans-serif" font-weight="700" font-stretch="semi-condensed" font-size="55" transform="matrix(6.12323e-17 -1 1 6.12323e-17 3975.25 1712)">Heap, GB</text></g><g><text fill="#262626" font-family="Aptos Narrow,Aptos Narrow_MSFontService,sans-serif" font-weight="700" font-stretch="semi-condensed" font-size="55" transform="matrix(6.12323e-17 -1 1 6.12323e-17 924.127 1709)">Time, ms</text></g><g><text fill="#262626" font-family="Aptos Narrow,Aptos Narrow_MSFontService,sans-serif" font-weight="700" font-stretch="semi-condensed" font-size="55" transform="matrix(1 0 0 1 2351.89 2492)">Framework</text></g><g><rect x="2029" y="2578" width="22.9996" height="23" fill="#47D45A"/></g><g><text fill="#595959" font-family="Aptos Narrow,Aptos Narrow_MSFontService,sans-serif" font-weight="400" font-stretch="semi-condensed" font-size="41" transform="matrix(1 0 0 1 2061.56 2601)">Time to Load</text></g><g><rect x="2325" y="2578" width="22" height="23" fill="#FFC000"/></g><g><text fill="#595959" font-family="Aptos Narrow,Aptos Narrow_MSFontService,sans-serif" font-weight="400" font-stretch="semi-condensed" font-size="41" transform="matrix(1 0 0 1 2356.88 2601)">Time to Aggregate</text></g><g><rect x="2702" y="2578" width="22" height="23" fill="#7030A0"/></g><g><text fill="#595959" font-family="Aptos Narrow,Aptos Narrow_MSFontService,sans-serif" font-weight="400" font-stretch="semi-condensed" font-size="41" transform="matrix(1 0 0 1 2734.01 2601)">Max Heap*</text></g><rect x="815.5" y="874.5" width="3300" height="1782" stroke="#D9D9D9" stroke-width="3.4375" stroke-linejoin="round" stroke-miterlimit="10" fill="none"/><g><g><text fill="#FF0000" font-family="Aptos Narrow,Aptos Narrow_MSFontService,sans-serif" font-weight="400" font-stretch="semi-condensed" font-size="73" transform="matrix(1 0 0 1 3517.25 2224)">DNF</text></g></g></g></svg>