<svg width="399" height="399" xmlns="http://www.w3.org/2000/svg" xmlns:xlink="http://www.w3.org/1999/xlink" xml:space="preserve" overflow="hidden"><g transform="translate(-377 -115)"><path d="M377.5 431.5 460.5 431.5 460.5 513.5 377.5 513.5Z" stroke="#F7941E" stroke-width="1.33333" stroke-miterlimit="8" fill="#F7941E"/><path d="M377.5 325.5 460.5 325.5 460.5 408.5 377.5 408.5Z" stroke="#F7941E" stroke-width="1.33333" stroke-miterlimit="8" fill="#F7941E"/><path d="M377.5 220.5 460.5 220.5 460.5 303.5 377.5 303.5Z" stroke="#F7941E" stroke-width="1.33333" stroke-miterlimit="8" fill="#F7941E"/><path d="M377.5 115.5 460.5 115.5 460.5 198.5 377.5 198.5Z" stroke="#F7941E" stroke-width="1.33333" stroke-miterlimit="8" fill="#F7941E"/><path d="M482.5 431.5 565.5 431.5 565.5 513.5 482.5 513.5Z" stroke="#F7941E" stroke-width="1.33333" stroke-miterlimit="8" fill="#F7941E"/><path d="M692.5 431.5 775.5 431.5 775.5 513.5 692.5 513.5Z" stroke="#2C2255" stroke-width="1.33333" stroke-miterlimit="8" fill="#2C2255"/><path d="M692.5 115.5 775.5 115.5 775.5 198.5 692.5 198.5Z" stroke="#2C2255" stroke-width="1.33333" stroke-miterlimit="8" fill="#2C2255"/><path d="M587.5 115.5 670.5 115.5 670.5 198.5 587.5 198.5Z" stroke="#2C2255" stroke-width="1.33333" stroke-miterlimit="8" fill="#2C2255"/><path d="M692.5 325.5 775.5 325.5 775.5 408.5 692.5 408.5Z" stroke="#2C2255" stroke-width="1.33333" stroke-miterlimit="8" fill="#2C2255"/><path d="M692.5 220.5 775.5 220.5 775.5 303.5 692.5 303.5Z" stroke="#2C2255" stroke-width="1.33333" stroke-miterlimit="8" fill="#2C2255"/><path d="M482.5 325.5 565.5 325.5 565.5 408.5 482.5 408.5Z" stroke="#F7941E" stroke-width="1.33333" stroke-miterlimit="8" fill="#F7941E"/><path d="M587.5 220.5 670.5 220.5 670.5 303.5 587.5 303.5Z" stroke="#2C2255" stroke-width="1.33333" stroke-miterlimit="8" fill="#2C2255"/><path d="M0 19.6845 81.8384 19.6845 81.8384 0 149 66 81.8384 132 81.8384 112.315 0 112.315Z" stroke="#FFFFFF" stroke-width="8" stroke-miterlimit="8" fill="#2C2255" fill-rule="evenodd" transform="matrix(-1 0 0 1 673 299)"/><path d="M478 213.685 559.838 213.685 559.838 194 627 260 559.838 326 559.838 306.315 478 306.315Z" stroke="#FFFFFF" stroke-width="8" stroke-miterlimit="8" fill="#F7941E" fill-rule="evenodd"/><path d="M587.5 431.5 670.5 431.5 670.5 513.5 587.5 513.5Z" stroke="#2C2255" stroke-width="1.33333" stroke-miterlimit="8" fill="#2C2255"/><path d="M483.5 115.5 566.5 115.5 566.5 198.5 483.5 198.5Z" stroke="#F7941E" stroke-width="1.33333" stroke-miterlimit="8" fill="#F7941E"/></g></svg>