<svg width="1373" height="1375" xmlns="http://www.w3.org/2000/svg" xmlns:xlink="http://www.w3.org/1999/xlink" xml:space="preserve" overflow="hidden"><g transform="translate(-2094 -527)"><rect x="2096.5" y="1615.5" width="284" height="284" stroke="#F7941E" stroke-width="4.58333" stroke-miterlimit="8" fill="#F7941E"/><rect x="2096.5" y="1253.5" width="284" height="284" stroke="#F7941E" stroke-width="4.58333" stroke-miterlimit="8" fill="#F7941E"/><rect x="2096.5" y="891.5" width="284" height="284" stroke="#F7941E" stroke-width="4.58333" stroke-miterlimit="8" fill="#F7941E"/><rect x="2096.5" y="529.5" width="284" height="285" stroke="#F7941E" stroke-width="4.58333" stroke-miterlimit="8" fill="#F7941E"/><rect x="2457.5" y="1615.5" width="285" height="284" stroke="#F7941E" stroke-width="4.58333" stroke-miterlimit="8" fill="#F7941E"/><rect x="3180.5" y="1615.5" width="284" height="284" stroke="#2C2255" stroke-width="4.58333" stroke-miterlimit="8" fill="#2C2255"/><rect x="3180.5" y="529.5" width="284" height="285" stroke="#2C2255" stroke-width="4.58333" stroke-miterlimit="8" fill="#2C2255"/><rect x="2818.5" y="529.5" width="285" height="285" stroke="#2C2255" stroke-width="4.58333" stroke-miterlimit="8" fill="#2C2255"/><rect x="3180.5" y="1253.5" width="284" height="284" stroke="#2C2255" stroke-width="4.58333" stroke-miterlimit="8" fill="#2C2255"/><rect x="3180.5" y="891.5" width="284" height="284" stroke="#2C2255" stroke-width="4.58333" stroke-miterlimit="8" fill="#2C2255"/><rect x="2457.5" y="891.5" width="285" height="284" stroke="#F7941E" stroke-width="4.58333" stroke-miterlimit="8" fill="#F7941E"/><rect x="2818.5" y="891.5" width="285" height="284" stroke="#2C2255" stroke-width="4.58333" stroke-miterlimit="8" fill="#2C2255"/><path d="M2443 870.553 2725.51 870.553 2725.51 803 2956 1029.5 2725.51 1256 2725.51 1188.45 2443 1188.45Z" stroke="#FFFFFF" stroke-width="27.5" stroke-miterlimit="8" fill="#F7941E" fill-rule="evenodd"/><rect x="2460.5" y="529.5" width="285" height="285" stroke="#F7941E" stroke-width="4.58333" stroke-miterlimit="8" fill="#F7941E"/><rect x="2457.5" y="1253.5" width="285" height="284" stroke="#F7941E" stroke-width="4.58333" stroke-miterlimit="8" fill="#F7941E"/><rect x="2818.5" y="1253.5" width="285" height="284" stroke="#2C2255" stroke-width="4.58333" stroke-miterlimit="8" fill="#2C2255"/><path d="M0 67.5539 281.514 67.5539 281.514 0 512 226.5 281.514 453 281.514 385.446 0 385.446Z" stroke="#FFFFFF" stroke-width="27.5" stroke-miterlimit="8" fill="#2C2255" fill-rule="evenodd" transform="matrix(-1 0 0 1 3119 1168)"/><rect x="2818.5" y="1615.5" width="285" height="284" stroke="#2C2255" stroke-width="4.58333" stroke-miterlimit="8" fill="#2C2255"/><path d="M0 275 0 0 276 275Z" stroke="#2C2255" stroke-width="4.58333" stroke-miterlimit="8" fill="#2C2255" fill-rule="evenodd" transform="matrix(-1 0 0 1 3103.5 900.5)"/></g></svg>