<svg width="595" height="619" xmlns="http://www.w3.org/2000/svg" xmlns:xlink="http://www.w3.org/1999/xlink" xml:space="preserve" overflow="hidden"><g transform="translate(-29 -23)"><path d="M333.517 170.834 340.865 171.022 348.223 171.58 362.81 173.752 377.173 177.257 391.187 181.998 404.74 187.88 417.716 194.808 430.003 202.687 441.486 211.423 452.051 220.922 461.582 231.09 469.967 241.833 477.089 253.058 482.827 264.662 485.149 270.594 487.079 276.579 488.605 282.614 489.714 288.687 490.39 294.786 490.569 299.555 489.236 299.605 489.059 294.86 489.062 294.909 488.392 288.857 488.398 288.904 487.298 282.875 487.307 282.919 485.791 276.927 485.803 276.968 483.886 271.023 483.9 271.061 481.596 265.175 481.62 265.228 475.909 253.681 475.944 253.743 468.858 242.575 468.896 242.628 460.55 231.934 460.589 231.98 451.097 221.855 451.138 221.895 440.615 212.433 440.657 212.468 429.217 203.764 429.261 203.795 417.019 195.944 417.065 195.971 404.136 189.069 404.184 189.092 390.682 183.232 390.734 183.252 376.773 178.529 376.828 178.545 362.524 175.054 362.584 175.066 348.05 172.902 348.098 172.907 340.781 172.352 340.814 172.354 333.483 172.166ZM494.855 291.725 489.952 300.902 484.377 292.117C484.18 291.806 484.272 291.395 484.583 291.197 484.894 291 485.306 291.092 485.503 291.403L490.465 299.223 489.314 299.266 493.679 291.097C493.852 290.772 494.256 290.65 494.581 290.823 494.906 290.997 495.028 291.401 494.855 291.725Z"/><path d="M0.0752587-0.662405 4.85554-0.119297 9.65239 1.48182 14.3484 4.05084 18.9102 7.5104 23.3065 11.7877 27.5055 16.8131 31.474 22.5181 35.1778 28.8349 38.5818 35.6962 41.6505 43.0342 44.3476 50.7814 46.637 58.8702 48.4818 67.2329 49.8455 75.8018 50.691 84.5091 50.9367 91.9453 49.6041 91.9894 49.3591 84.5744 49.3618 84.6168 48.5204 75.9509 48.5255 75.9913 47.1682 67.462 47.1756 67.5008 45.3391 59.1766 45.3487 59.2145 43.0701 51.1635 43.0819 51.2011 40.3979 43.4918 40.4125 43.5298 37.36 36.2304 37.3778 36.2695 33.9937 29.4484 34.0158 29.4893 30.3368 23.2147 30.3646 23.2582 26.4277 17.5986 26.4634 17.6454 22.3054 12.6691 22.3521 12.7194 18.0098 8.49464 18.0718 8.54801 13.5821 5.14314 13.665 5.19681 9.06478 2.68017 9.17367 2.72767 4.49972 1.16758 4.63554 1.19762-0.0752587 0.662405ZM55.2569 84.1343 50.3141 93.2897 44.7776 84.4806C44.5817 84.1689 44.6755 83.7573 44.9873 83.5614 45.299 83.3655 45.7106 83.4594 45.9065 83.7711L50.8349 91.6126 49.6838 91.6506 54.0836 83.5008C54.2586 83.1769 54.663 83.056 54.987 83.2309 55.311 83.4058 55.4318 83.8103 55.2569 84.1343Z" transform="matrix(-1 1.22465e-16 1.22465e-16 1 227.814 278.5)"/><path d="M95.5001 171.5C95.5001 90.8665 164.224 25.5001 249 25.5001 333.776 25.5001 402.5 90.8665 402.5 171.5 402.5 252.134 333.776 317.5 249 317.5 164.224 317.5 95.5001 252.134 95.5001 171.5Z" stroke="#172C51" stroke-width="1.33333" stroke-miterlimit="8" fill="#FFFFFF" fill-rule="evenodd"/><text font-family="Calibri,Calibri_MSFontService,sans-serif" font-weight="400" font-size="24" transform="translate(225.526 179)">Data</text><path d="M272.103 53.3252C271.306 53.17 270.63 53.2736 270.074 53.636 269.519 53.9984 269.155 54.6194 268.984 55.4989L268.398 58.5083C268.226 59.3877 268.33 60.0997 268.709 60.6442 269.088 61.1887 269.676 61.5386 270.473 61.6939 271.284 61.8519 271.963 61.7489 272.512 61.3852 273.061 61.0214 273.421 60.3997 273.592 59.5203L274.178 56.5109C274.35 55.6314 274.249 54.9201 273.877 54.3769 273.505 53.8338 272.914 53.4832 272.103 53.3252ZM272.424 51.6762C273.799 51.944 274.807 52.5505 275.45 53.496 276.093 54.4414 276.274 55.6355 275.993 57.0784L275.487 59.6756C275.209 61.1047 274.59 62.1395 273.631 62.7799 272.672 63.4203 271.512 63.6079 270.152 63.3429 268.791 63.0779 267.787 62.4685 267.138 61.5149 266.489 60.5612 266.304 59.3699 266.583 57.9407L267.089 55.3436C267.37 53.9007 267.986 52.8618 268.937 52.227 269.888 51.5921 271.05 51.4085 272.424 51.6762Z" fill-rule="evenodd"/><path d="M286.851 55.4114C287.996 55.7819 288.768 56.4103 289.165 57.2967 289.563 58.183 289.557 59.2589 289.148 60.5244L288.844 61.4635 287.046 60.8819 287.35 59.9428C287.866 58.3443 287.346 57.293 285.787 56.789 285.001 56.5348 284.329 56.5674 283.769 56.8868 283.21 57.2061 282.792 57.7921 282.516 58.6446L280.255 65.6379 278.456 65.0563 282.011 54.0668 283.809 54.6484 283.13 56.7464 283.17 56.7593C283.492 56.0835 283.973 55.6209 284.612 55.3717 285.252 55.1225 285.998 55.1357 286.851 55.4114Z" fill-rule="evenodd"/><path d="M297.984 61.5573C297.259 61.2244 296.607 61.1522 296.027 61.3407 295.448 61.5292 294.959 62.0561 294.562 62.9213L293.161 65.975C292.769 66.8275 292.69 67.538 292.922 68.1066 293.154 68.6752 293.632 69.126 294.358 69.4588 295.07 69.7859 295.732 69.8201 296.344 69.5617 296.955 69.3032 297.442 68.7796 297.804 67.9907L299.118 65.1278C299.48 64.3389 299.56 63.6284 299.357 62.9962 299.154 62.364 298.697 61.8843 297.984 61.5573ZM302.447 57.8752 304.165 58.6636 297.77 72.5962 296.052 71.8078 296.972 69.8038 296.953 69.7951C296.549 70.4413 296.003 70.8416 295.316 70.9961 294.629 71.1506 293.891 71.0468 293.102 70.6847 292.058 70.2059 291.382 69.472 291.074 68.4831 290.765 67.4942 290.885 66.4018 291.434 65.2057L292.845 62.1329C293.399 60.9241 294.149 60.1129 295.094 59.6993 296.038 59.2856 297.039 59.3211 298.095 59.8058 298.884 60.1679 299.445 60.6644 299.78 61.2954 300.114 61.9263 300.177 62.6023 299.969 63.3234L299.989 63.3322 301.045 60.9289Z" fill-rule="evenodd"/><path d="M310.088 67.8673C309.358 67.4245 308.663 67.294 308.005 67.4758 307.346 67.6576 306.781 68.1375 306.309 68.9156L306.004 69.4184 310.601 72.2059 310.906 71.7031C311.378 70.925 311.542 70.2019 311.398 69.5337 311.255 68.8656 310.818 68.3101 310.088 67.8673ZM310.894 66.5385C311.672 67.0103 312.257 67.5779 312.649 68.2412 313.041 68.9045 313.228 69.6155 313.21 70.3741 313.192 71.1328 312.95 71.8952 312.486 72.6613L311.419 74.4211 305.242 70.6754 304.675 71.6091C304.233 72.3394 304.092 73.044 304.253 73.7231 304.415 74.4021 304.842 74.9521 305.537 75.3731 306.135 75.7361 306.7 75.9188 307.23 75.9213 307.761 75.9238 308.188 75.7529 308.511 75.4087L310.127 76.3886C309.519 77.1493 308.72 77.5616 307.732 77.6254 306.744 77.6892 305.729 77.4053 304.687 76.7738 303.526 76.0696 302.802 75.1515 302.514 74.0192 302.226 72.887 302.457 71.7044 303.204 70.4714L304.62 68.137C305.367 66.904 306.31 66.1533 307.447 65.8849 308.584 65.6165 309.733 65.8344 310.894 66.5385Z" fill-rule="evenodd"/><path d="M323.103 74.9759C324.056 75.7119 324.57 76.5642 324.644 77.5328 324.718 78.5013 324.349 79.5119 323.536 80.5644L322.933 81.3455 321.437 80.1901 322.04 79.409C323.067 78.0795 322.933 76.9141 321.637 75.9127 320.983 75.4078 320.339 75.211 319.704 75.3224 319.07 75.4337 318.479 75.844 317.931 76.5531L313.438 82.3697 311.942 81.2143 319.003 72.0739 320.499 73.2292 319.151 74.9743 319.184 74.9999C319.715 74.4726 320.324 74.1999 321.01 74.1816 321.696 74.1634 322.394 74.4281 323.103 74.9759Z" fill-rule="evenodd"/><path d="M332.307 83.0235 332.971 83.666C333.776 84.4447 334.24 85.2786 334.364 86.1676 334.488 87.0566 334.258 87.8426 333.675 88.5255L332.302 87.1968C332.564 86.8856 332.659 86.5102 332.588 86.0708 332.516 85.6314 332.274 85.2122 331.861 84.8131L331.197 84.1706C330.734 83.7229 330.27 83.4781 329.804 83.4363 329.338 83.3946 328.93 83.5548 328.579 83.9171 328.015 84.5007 327.96 85.0907 328.416 85.6871L330.267 88.0623C331.481 89.6263 331.387 91.1328 329.985 92.5817 329.236 93.3565 328.4 93.712 327.478 93.6481 326.557 93.5842 325.633 93.1044 324.707 92.2089L324.043 91.5665C323.117 90.671 322.602 89.7686 322.498 88.8595 322.394 87.9503 322.712 87.1134 323.451 86.3486L324.81 87.6627C324.44 88.0451 324.286 88.4759 324.349 88.955 324.411 89.4342 324.689 89.9122 325.182 90.3892L325.846 91.0316C326.349 91.5183 326.846 91.7848 327.337 91.8311 327.828 91.8774 328.268 91.6994 328.657 91.2969 329.348 90.5824 329.411 89.8636 328.844 89.1403L326.871 86.5889C326.386 85.9633 326.174 85.306 326.237 84.6168 326.3 83.9277 326.638 83.2661 327.251 82.6322 327.952 81.9077 328.751 81.5801 329.648 81.6494 330.545 81.7186 331.432 82.1767 332.307 83.0235Z" fill-rule="evenodd"/><path d="M342.022 87.8033 347.783 94.7568 346.457 95.8554 341.875 90.3249 337.961 93.5671 342.195 98.6772 340.869 99.7758 336.662 94.6981 331.423 99.0389 330.217 97.5835Z" fill-rule="evenodd"/><path d="M348.768 105.384C348.321 104.706 347.774 104.296 347.127 104.152 346.479 104.009 345.781 104.183 345.033 104.676L342.472 106.362C341.724 106.855 341.288 107.427 341.163 108.079 341.039 108.73 341.201 109.395 341.647 110.073 342.101 110.763 342.65 111.177 343.294 111.315 343.938 111.452 344.634 111.275 345.382 110.782L347.943 109.096C348.691 108.603 349.13 108.034 349.258 107.388 349.385 106.742 349.222 106.074 348.768 105.384ZM350.171 104.461C350.941 105.63 351.213 106.775 350.987 107.896 350.762 109.017 350.035 109.981 348.807 110.79L346.597 112.245C345.381 113.046 344.209 113.327 343.08 113.09 341.952 112.852 341.006 112.155 340.244 110.997 339.482 109.84 339.215 108.696 339.442 107.565 339.67 106.434 340.392 105.469 341.608 104.668L343.818 103.213C345.046 102.405 346.219 102.118 347.338 102.354 348.457 102.589 349.401 103.291 350.171 104.461Z" fill-rule="evenodd"/><path d="M357.625 117.257C358.174 118.329 358.275 119.319 357.93 120.227 357.585 121.135 356.821 121.892 355.637 122.498L354.758 122.948 353.897 121.265 354.776 120.816C356.271 120.05 356.646 118.938 355.899 117.48 355.523 116.745 355.024 116.293 354.402 116.123 353.781 115.954 353.071 116.073 352.274 116.481L345.731 119.831 344.87 118.148 355.151 112.885 356.013 114.568 354.05 115.572 354.069 115.61C354.774 115.359 355.441 115.371 356.07 115.647 356.698 115.923 357.217 116.46 357.625 117.257Z" fill-rule="evenodd"/><path d="M363.617 125.861 352.433 130.127 353.174 132.07C353.504 132.933 354.004 133.518 354.675 133.823 355.346 134.129 356.113 134.118 356.977 133.788L362.686 131.61C363.537 131.286 364.11 130.786 364.407 130.111 364.704 129.436 364.688 128.667 364.358 127.803ZM364.513 123.496 365.928 127.204C366.282 128.133 366.411 129.002 366.315 129.81 366.219 130.618 365.921 131.331 365.423 131.949 364.924 132.566 364.236 133.042 363.36 133.376L357.65 135.554C356.774 135.888 355.941 135.993 355.151 135.867 354.362 135.741 353.662 135.409 353.051 134.87 352.441 134.331 351.959 133.597 351.605 132.668L350.19 128.96Z" fill-rule="evenodd"/><path d="M360.665 142.654C360.508 142.059 360.202 141.622 359.745 141.343 359.289 141.065 358.762 141.004 358.167 141.161 357.544 141.324 357.107 141.66 356.857 142.167 356.606 142.674 356.577 143.293 356.769 144.025 357.004 144.918 357.407 145.572 357.979 145.987 358.551 146.401 359.209 146.51 359.954 146.315L361.518 145.904ZM366.947 141.938C367.303 143.293 367.25 144.417 366.791 145.312 366.331 146.207 365.519 146.808 364.354 147.114L356.677 149.13 356.202 147.322 358.233 146.789 358.222 146.748C357.503 146.821 356.868 146.619 356.315 146.141 355.763 145.664 355.361 144.945 355.108 143.983 354.806 142.832 354.887 141.834 355.353 140.988 355.818 140.142 356.572 139.582 357.615 139.308 358.306 139.127 358.949 139.124 359.545 139.301 360.142 139.477 360.658 139.805 361.095 140.283 361.532 140.762 361.845 141.36 362.033 142.078L362.94 145.531 363.813 145.302C365.262 144.921 365.779 143.939 365.363 142.354 365.178 141.65 364.9 141.115 364.529 140.75 364.158 140.384 363.738 140.248 363.271 140.342L362.791 138.514C363.689 138.35 364.524 138.569 365.297 139.169 366.07 139.77 366.62 140.693 366.947 141.938Z" fill-rule="evenodd"/><path d="M372.45 153.015 372.728 154.884 369.509 155.364 370.206 160.037 368.503 160.291 367.806 155.618 361.097 156.618C360.709 156.676 360.411 156.837 360.203 157.102 359.995 157.366 359.919 157.685 359.974 158.059L360.47 161.383 358.767 161.637 358.271 158.313C358.131 157.372 358.292 156.576 358.754 155.927 359.216 155.278 359.904 154.885 360.818 154.749L367.527 153.748 367.038 150.467 368.741 150.213 369.23 153.495Z" fill-rule="evenodd"/><path d="M369.47 169.186C369.437 168.333 369.164 167.681 368.65 167.231 368.135 166.782 367.424 166.574 366.514 166.608L365.927 166.63 366.13 172.003 366.717 171.98C367.626 171.946 368.321 171.685 368.8 171.198 369.279 170.71 369.502 170.04 369.47 169.186ZM371.023 169.128C371.057 170.037 370.905 170.838 370.567 171.53 370.229 172.222 369.738 172.77 369.095 173.172 368.452 173.575 367.682 173.793 366.787 173.827L364.73 173.905 364.458 166.686 363.366 166.727C362.513 166.759 361.847 167.03 361.369 167.538 360.891 168.046 360.667 168.706 360.698 169.518 360.724 170.217 360.883 170.789 361.172 171.234 361.462 171.678 361.84 171.94 362.306 172.021L362.377 173.91C361.407 173.82 360.623 173.38 360.026 172.59 359.429 171.8 359.107 170.797 359.061 169.58 359.01 168.223 359.378 167.112 360.165 166.249 360.952 165.386 362.066 164.927 363.507 164.872L366.235 164.769C367.676 164.715 368.821 165.088 369.671 165.89 370.521 166.691 370.971 167.771 371.023 169.128Z" fill-rule="evenodd"/><path d="M376.365 187.199 374.543 187.064C374.399 186.155 374.059 185.347 373.522 184.64 372.985 183.934 372.293 183.37 371.447 182.949 370.601 182.529 369.626 182.277 368.523 182.196L364.754 181.916C363.664 181.835 362.667 181.94 361.761 182.231 360.855 182.522 360.084 182.977 359.449 183.597 358.813 184.216 358.357 184.965 358.082 185.843L356.26 185.708C356.855 183.745 357.905 182.268 359.41 181.278 360.915 180.287 362.743 179.872 364.893 180.031L368.663 180.311C370.813 180.47 372.559 181.151 373.902 182.352 375.245 183.554 376.066 185.169 376.365 187.199Z" fill-rule="evenodd"/><path d="M360.59 194.955C360.493 195.464 360.257 195.844 359.882 196.093 359.507 196.343 359.065 196.419 358.556 196.323 358.075 196.231 357.712 196.002 357.468 195.635 357.224 195.268 357.151 194.831 357.247 194.322 357.344 193.813 357.573 193.432 357.934 193.18 358.295 192.928 358.716 192.848 359.198 192.939 359.707 193.035 360.09 193.268 360.348 193.638 360.605 194.007 360.686 194.446 360.59 194.955Z" fill-rule="evenodd"/><path d="M357.498 207.384C357.344 207.879 357.066 208.228 356.665 208.433 356.264 208.638 355.816 208.663 355.321 208.509 354.854 208.363 354.52 208.093 354.319 207.701 354.119 207.308 354.096 206.865 354.251 206.37 354.405 205.876 354.676 205.524 355.064 205.315 355.452 205.107 355.88 205.075 356.348 205.221 356.842 205.376 357.196 205.651 357.41 206.048 357.623 206.444 357.653 206.89 357.498 207.384Z" fill-rule="evenodd"/><path d="M352.987 219.37C352.775 219.843 352.458 220.157 352.036 220.314 351.614 220.47 351.166 220.443 350.693 220.231 350.245 220.032 349.945 219.725 349.793 219.312 349.64 218.899 349.669 218.456 349.88 217.983 350.091 217.51 350.402 217.192 350.812 217.03 351.221 216.868 351.65 216.887 352.097 217.087 352.57 217.298 352.889 217.613 353.055 218.032 353.221 218.451 353.198 218.897 352.987 219.37Z" fill-rule="evenodd"/><path d="M361.48 234.829C360.067 236.317 358.465 237.165 356.675 237.373 354.886 237.582 353.066 237.132 351.217 236.024L347.974 234.082C346.125 232.974 344.87 231.581 344.21 229.904 343.55 228.228 343.542 226.416 344.186 224.468L345.754 225.407C345.466 226.296 345.405 227.173 345.572 228.04 345.738 228.907 346.108 229.72 346.681 230.479 347.254 231.239 348.009 231.899 348.945 232.46L352.188 234.403C353.137 234.972 354.078 235.328 355.012 235.471 355.946 235.614 356.835 235.555 357.677 235.293 358.52 235.031 359.265 234.563 359.913 233.89Z" fill-rule="evenodd"/><path d="M144.047 239.467C143.775 239.043 143.669 238.604 143.728 238.15 143.787 237.697 143.987 237.27 144.329 236.868L144.318 236.851C143.84 237.04 143.385 237.069 142.953 236.939 142.52 236.808 142.161 236.519 141.874 236.071 141.474 235.446 141.388 234.799 141.616 234.129 141.844 233.46 142.33 232.887 143.073 232.412L150.466 227.68 151.417 229.166 144.006 233.909C143.617 234.158 143.367 234.45 143.258 234.786 143.149 235.122 143.2 235.455 143.411 235.785 143.615 236.104 143.889 236.285 144.234 236.331 144.579 236.376 144.946 236.274 145.335 236.025L152.764 231.271 153.602 232.58 146.19 237.323C145.801 237.572 145.552 237.864 145.443 238.2 145.334 238.536 145.381 238.863 145.585 239.181 145.796 239.512 146.074 239.699 146.419 239.745 146.763 239.79 147.13 239.688 147.52 239.439L154.949 234.685 155.899 236.171 146.171 242.396 145.288 241.017 146.579 240.19 146.557 240.155C146.083 240.375 145.618 240.428 145.161 240.312 144.705 240.197 144.334 239.915 144.047 239.467Z" fill-rule="evenodd"/><path d="M138.214 225.63C138.563 226.363 139.049 226.845 139.671 227.076 140.293 227.307 141.008 227.23 141.817 226.844L144.585 225.525C145.393 225.14 145.904 224.633 146.116 224.005 146.329 223.376 146.26 222.695 145.911 221.962 145.556 221.217 145.069 220.731 144.45 220.507 143.831 220.282 143.117 220.362 142.308 220.748L139.54 222.067C138.732 222.452 138.219 222.956 138.004 223.578 137.789 224.2 137.859 224.884 138.214 225.63ZM136.697 226.352C136.095 225.089 135.983 223.917 136.36 222.838 136.738 221.758 137.59 220.902 138.917 220.27L141.306 219.132C142.62 218.506 143.82 218.388 144.905 218.778 145.991 219.168 146.831 219.988 147.428 221.24 148.024 222.491 148.132 223.661 147.751 224.749 147.37 225.838 146.522 226.696 145.208 227.322L142.819 228.46C141.492 229.092 140.291 229.215 139.215 228.828 138.139 228.442 137.3 227.616 136.697 226.352Z" fill-rule="evenodd"/><path d="M131.748 214.216 131.454 213.34C131.098 212.278 131.069 211.324 131.368 210.478 131.667 209.632 132.233 209.04 133.064 208.701L133.673 210.513C133.297 210.669 133.039 210.958 132.901 211.381 132.762 211.805 132.784 212.288 132.967 212.832L133.261 213.708C133.466 214.319 133.766 214.75 134.16 215.001 134.555 215.253 134.991 215.298 135.469 215.138 136.239 214.879 136.559 214.381 136.429 213.642L135.878 210.681C135.519 208.734 136.296 207.439 138.207 206.798 139.229 206.455 140.134 206.524 140.924 207.004 141.713 207.485 142.312 208.336 142.722 209.557L143.016 210.433C143.426 211.654 143.468 212.692 143.142 213.548 142.817 214.403 142.149 215 141.141 215.338L140.539 213.546C141.043 213.377 141.378 213.065 141.543 212.611 141.708 212.157 141.682 211.605 141.463 210.955L141.169 210.079C140.946 209.415 140.628 208.95 140.213 208.683 139.799 208.416 139.326 208.371 138.795 208.55 137.853 208.866 137.467 209.476 137.637 210.378L138.215 213.551C138.358 214.33 138.243 215.011 137.871 215.594 137.498 216.177 136.893 216.609 136.057 216.89 135.102 217.211 134.241 217.134 133.477 216.66 132.712 216.185 132.136 215.371 131.748 214.216Z" fill-rule="evenodd"/><path d="M125.427 203.289 125.039 201.439 128.225 200.772 127.256 196.147 128.941 195.794 129.91 200.419 136.549 199.028C136.933 198.947 137.221 198.769 137.413 198.493 137.606 198.216 137.663 197.893 137.586 197.523L136.897 194.235 138.582 193.882 139.271 197.17C139.466 198.102 139.352 198.905 138.929 199.581 138.505 200.256 137.841 200.688 136.937 200.878L130.298 202.268 130.978 205.516 129.293 205.869 128.612 202.622Z" fill-rule="evenodd"/><path d="M124.342 189.991 129.946 189.471 129.665 186.439C129.589 185.616 129.273 184.981 128.718 184.533 128.164 184.086 127.461 183.901 126.611 183.98 125.747 184.061 125.086 184.371 124.631 184.913 124.175 185.454 123.985 186.136 124.061 186.959ZM122.824 192.03 122.367 187.116C122.235 185.694 122.538 184.523 123.275 183.604 124.013 182.685 125.064 182.162 126.43 182.036 127.797 181.909 128.926 182.229 129.82 182.997 130.714 183.765 131.227 184.86 131.359 186.281L131.64 189.313 137.913 188.731 138.088 190.613Z" fill-rule="evenodd"/><path d="M127.185 173.901C127.17 174.713 127.39 175.361 127.843 175.845 128.296 176.329 128.971 176.58 129.867 176.596L132.932 176.652C133.828 176.668 134.511 176.443 134.982 175.975 135.452 175.508 135.695 174.868 135.71 174.056 135.725 173.23 135.506 172.579 135.052 172.101 134.599 171.624 133.924 171.377 133.028 171.361L129.963 171.305C129.067 171.289 128.384 171.511 127.913 171.971 127.443 172.432 127.2 173.075 127.185 173.901ZM125.506 173.87C125.531 172.47 125.954 171.372 126.773 170.575 127.593 169.778 128.738 169.392 130.207 169.419L132.853 169.467C134.309 169.494 135.435 169.924 136.232 170.758 137.029 171.591 137.415 172.701 137.39 174.087 137.364 175.472 136.938 176.567 136.112 177.371 135.285 178.176 134.143 178.564 132.688 178.538L130.042 178.49C128.572 178.463 127.442 178.036 126.652 177.21 125.862 176.383 125.48 175.27 125.506 173.87Z" fill-rule="evenodd"/><path d="M128.053 160.593C127.956 161.357 128.123 161.995 128.552 162.508 128.981 163.021 129.626 163.331 130.487 163.44L133.613 163.835C134.474 163.943 135.176 163.803 135.719 163.413 136.262 163.023 136.582 162.446 136.678 161.682 136.778 160.89 136.648 160.246 136.288 159.749 135.927 159.252 135.281 158.944 134.351 158.827L131.017 158.406C130.073 158.287 129.368 158.423 128.902 158.816 128.436 159.209 128.153 159.801 128.053 160.593ZM126.507 159.762C126.652 158.61 127.147 157.741 127.989 157.156 128.832 156.571 129.914 156.361 131.233 156.528L134.588 156.952C135.907 157.118 136.906 157.59 137.584 158.367 138.262 159.144 138.528 160.109 138.382 161.262 138.274 162.123 137.969 162.804 137.468 163.306 136.967 163.807 136.343 164.06 135.594 164.064L135.587 164.126 138.196 164.414 141.53 164.834 141.293 166.71 126.084 164.789 126.32 162.914 128.508 163.19 128.511 163.169C127.773 162.977 127.227 162.577 126.874 161.968 126.52 161.359 126.398 160.624 126.507 159.762Z" fill-rule="evenodd"/><path d="M128.003 151.465 128.434 149.625 135.59 151.301C136.408 151.492 137.11 151.427 137.696 151.104 138.282 150.781 138.663 150.245 138.839 149.495 139.017 148.732 138.917 148.072 138.537 147.515 138.156 146.959 137.557 146.585 136.74 146.394L129.583 144.717 130.014 142.877 137.171 144.553C138.493 144.863 139.446 145.503 140.031 146.474 140.616 147.445 140.757 148.578 140.454 149.873 140.151 151.168 139.523 152.114 138.571 152.711 137.619 153.307 136.481 153.451 135.159 153.141Z" fill-rule="evenodd"/><path d="M127.298 138.404 129.224 132.848 140.633 136.804C141.083 136.96 141.48 136.957 141.825 136.795 142.17 136.633 142.416 136.34 142.563 135.917L143.732 132.544 145.359 133.108 144.19 136.481C143.855 137.447 143.307 138.12 142.545 138.5 141.784 138.881 140.94 138.91 140.014 138.589L130.232 135.198 128.925 138.968Z" fill-rule="evenodd"/><path d="M142.868 125.21C142.607 125.768 142.563 126.3 142.736 126.806 142.908 127.312 143.274 127.696 143.832 127.957 144.415 128.23 144.965 128.252 145.482 128.022 145.999 127.793 146.418 127.336 146.739 126.651 147.13 125.814 147.239 125.054 147.065 124.369 146.891 123.685 146.455 123.179 145.758 122.853L144.293 122.167ZM137.584 121.739C138.178 120.471 138.938 119.64 139.864 119.247 140.79 118.853 141.798 118.912 142.889 119.423L150.078 122.789 149.285 124.481 147.383 123.591 147.365 123.629C147.965 124.033 148.323 124.595 148.442 125.316 148.561 126.036 148.41 126.846 147.988 127.746 147.483 128.824 146.782 129.539 145.882 129.891 144.983 130.243 144.046 130.19 143.069 129.733 142.423 129.43 141.927 129.02 141.582 128.503 141.236 127.986 141.049 127.404 141.02 126.756 140.991 126.109 141.134 125.449 141.448 124.777L142.962 121.544 142.144 121.161C140.788 120.526 139.762 120.95 139.067 122.433 138.759 123.092 138.63 123.681 138.681 124.2 138.732 124.718 138.967 125.091 139.386 125.319L138.584 127.03C137.79 126.581 137.288 125.878 137.079 124.922 136.869 123.966 137.038 122.905 137.584 121.739Z" fill-rule="evenodd"/><path d="M144.448 108.971C145.069 107.94 145.857 107.332 146.81 107.146 147.764 106.961 148.81 107.212 149.949 107.898L150.795 108.408 149.819 110.026 148.973 109.517C147.535 108.65 146.392 108.917 145.547 110.32 145.12 111.028 144.999 111.69 145.183 112.307 145.366 112.925 145.842 113.465 146.609 113.927L152.904 117.722 151.928 119.341 142.036 113.378 143.012 111.759 144.9 112.897 144.922 112.861C144.337 112.394 143.996 111.821 143.899 111.141 143.802 110.462 143.985 109.738 144.448 108.971Z" fill-rule="evenodd"/><path d="M148.416 99.585 157.963 106.805 159.217 105.147C159.774 104.41 160.005 103.676 159.908 102.945 159.812 102.214 159.395 101.57 158.658 101.012L153.784 97.3259C153.058 96.777 152.33 96.5557 151.601 96.662 150.871 96.7682 150.227 97.1899 149.67 97.9268ZM145.936 100.079 148.33 96.9135C148.929 96.1206 149.597 95.5507 150.334 95.2037 151.07 94.8566 151.832 94.7309 152.62 94.8264 153.408 94.922 154.176 95.2527 154.924 95.8185L159.798 99.5047C160.546 100.071 161.076 100.722 161.388 101.458 161.701 102.194 161.79 102.964 161.656 103.767 161.523 104.57 161.156 105.368 160.557 106.161L158.163 109.326Z" fill-rule="evenodd"/><path d="M161.341 89.6271C160.785 90.2192 160.513 90.8468 160.524 91.5101 160.535 92.1734 160.868 92.8116 161.521 93.4247L163.757 95.5228C164.41 96.1359 165.068 96.427 165.731 96.3961 166.393 96.3652 167.002 96.0536 167.558 95.4615 168.123 94.8592 168.398 94.229 168.382 93.5709 168.366 92.9127 168.031 92.2771 167.378 91.6639L165.142 89.5658C164.489 88.9527 163.833 88.659 163.176 88.6849 162.518 88.7107 161.906 89.0248 161.341 89.6271ZM160.116 88.4774C161.074 87.4566 162.124 86.9255 163.267 86.8843 164.41 86.8431 165.517 87.3254 166.589 88.3314L168.518 90.1421C169.58 91.1384 170.127 92.213 170.158 93.3659 170.19 94.5188 169.732 95.6005 168.783 96.6112 167.835 97.6218 166.784 98.1479 165.632 98.1895 164.479 98.231 163.372 97.7536 162.31 96.7572L160.381 94.9465C159.309 93.9406 158.757 92.8662 158.726 91.7232 158.695 90.5802 159.158 89.4983 160.116 88.4774Z" fill-rule="evenodd"/><path d="M170.271 78.73C171.153 77.9732 172.086 77.6423 173.072 77.7373 174.057 77.8323 174.951 78.3473 175.754 79.2821L180.814 85.1783 179.38 86.4092 174.538 80.768C173.964 80.0988 173.357 79.7298 172.717 79.6611 172.076 79.5924 171.47 79.8043 170.896 80.2966 170.301 80.8073 169.99 81.3966 169.964 82.0648 169.938 82.733 170.217 83.407 170.8 84.0869L175.587 89.6643 174.153 90.8953 166.631 82.1308 168.065 80.8998 169.501 82.573 169.517 82.5594C169.09 81.9113 168.941 81.2546 169.072 80.5894 169.202 79.9242 169.602 79.3044 170.271 78.73Z" fill-rule="evenodd"/><path d="M176.98 73.5657 178.541 72.5004 182.684 78.5717C183.157 79.2655 183.719 79.6914 184.369 79.8494 185.02 80.0075 185.663 79.8695 186.299 79.4354 186.946 78.9936 187.318 78.4391 187.414 77.7721 187.509 77.1051 187.32 76.4247 186.847 75.7309L182.704 69.6597 184.265 68.5944 188.408 74.6656C189.174 75.7873 189.444 76.9037 189.219 78.0147 188.994 79.1258 188.332 80.0562 187.234 80.8058 186.135 81.5555 185.033 81.8285 183.928 81.6249 182.823 81.4213 181.888 80.7587 181.123 79.6369Z" fill-rule="evenodd"/><path d="M188.899 62.1526 190.572 61.2719 192.088 64.152 196.269 61.9505 197.072 63.4741 192.891 65.6757 196.051 71.6774C196.234 72.0242 196.484 72.2522 196.803 72.3614 197.122 72.4706 197.448 72.4371 197.782 72.2609L200.755 70.6954 201.558 72.219 198.585 73.7846C197.742 74.2282 196.939 74.339 196.173 74.1172 195.407 73.8953 194.809 73.3756 194.379 72.558L191.218 66.5563 188.283 68.1023 187.48 66.5786 190.416 65.0326Z" fill-rule="evenodd"/><path d="M205.944 51.4234 206.598 53.1293C205.837 53.6462 205.251 54.2983 204.841 55.0854 204.43 55.8726 204.215 56.7386 204.195 57.6834 204.175 58.6282 204.363 59.6169 204.76 60.6496L206.113 64.1789C206.504 65.1984 207.025 66.056 207.674 66.7517 208.323 67.4473 209.063 67.9506 209.895 68.2614 210.726 68.5723 211.598 68.6653 212.51 68.5405L213.164 70.2463C211.134 70.545 209.351 70.2245 207.813 69.2848 206.276 68.3451 205.121 66.8687 204.349 64.8557L202.995 61.3264C202.223 59.3135 202.094 57.4435 202.609 55.7167 203.123 53.9898 204.235 52.5587 205.944 51.4234Z" fill-rule="evenodd"/><path d="M212.203 49.4348C214.254 49.3879 215.984 49.9252 217.395 51.0468 218.805 52.1684 219.769 53.7755 220.288 55.8682L221.198 59.5371C221.717 61.6298 221.614 63.5013 220.891 65.1518 220.168 66.8023 218.889 68.0859 217.054 69.0024L216.614 67.2291C217.447 66.8063 218.112 66.2304 218.609 65.5013 219.106 64.7723 219.422 63.9367 219.556 62.9948 219.69 62.0528 219.626 61.0518 219.363 59.9919L218.454 56.323C218.188 55.2495 217.776 54.331 217.219 53.5676 216.662 52.8042 215.993 52.2164 215.213 51.804 214.433 51.3916 213.576 51.1929 212.642 51.2081Z" fill-rule="evenodd"/><path d="M0 0 0.000104987 226.501" stroke="#000000" stroke-width="1.33333" stroke-miterlimit="8" fill="none" fill-rule="evenodd" transform="matrix(1 0 0 -1 248.5 252.001)"/><path d="M356.686 274.661 188.5 114.5" stroke="#000000" stroke-width="1.33333" stroke-miterlimit="8" fill="none" fill-rule="evenodd"/><path d="M0 0 168.186 160.161" stroke="#000000" stroke-width="1.33333" stroke-miterlimit="8" fill="none" fill-rule="evenodd" transform="matrix(-1 0 0 1 308.686 114.5)"/><text font-family="JetBrains Mono,JetBrains Mono_MSFontService,sans-serif" font-weight="400" font-size="24" transform="translate(236.882 285)">...</text><path d="M164.5 172C164.5 127.541 202.332 91.5001 249 91.5001 295.668 91.5001 333.5 127.541 333.5 172 333.5 216.459 295.668 252.5 249 252.5 202.332 252.5 164.5 216.459 164.5 172Z" stroke="#172C51" stroke-width="1.33333" stroke-miterlimit="8" fill="#F2F2F2" fill-rule="evenodd"/><text font-family="JetBrains Mono,JetBrains Mono_MSFontService,sans-serif" font-weight="400" font-size="24" transform="translate(183.614 156)">DonutShop</text><text font-family="JetBrains Mono,JetBrains Mono_MSFontService,sans-serif" font-weight="400" font-size="19" transform="translate(198.028 180)">-</text><text font-family="JetBrains Mono,JetBrains Mono_MSFontService,sans-serif" font-weight="400" font-size="19" transform="translate(209.194 180)">customers</text><text font-family="JetBrains Mono,JetBrains Mono_MSFontService,sans-serif" font-weight="400" font-size="19" transform="translate(198.028 203)">-</text><text font-family="JetBrains Mono,JetBrains Mono_MSFontService,sans-serif" font-weight="400" font-size="19" transform="translate(209.194 203)">orders</text><path d="M357.5 427C357.5 357.688 416.598 301.5 489.5 301.5 562.402 301.5 621.5 357.688 621.5 427 621.5 496.312 562.402 552.5 489.5 552.5 416.598 552.5 357.5 496.312 357.5 427Z" stroke="#172C51" stroke-width="1.33333" stroke-miterlimit="8" fill="#FFFFFF" fill-rule="evenodd"/><text font-family="Calibri,Calibri_MSFontService,sans-serif" font-weight="400" font-size="24" transform="translate(466.488 434)">Data</text><path d="M452.968 325.157 453.856 324.9C454.931 324.588 455.886 324.599 456.719 324.933 457.552 325.267 458.12 325.857 458.423 326.702L456.588 327.234C456.448 326.852 456.169 326.583 455.752 326.427 455.335 326.271 454.851 326.273 454.3 326.433L453.413 326.69C452.794 326.869 452.351 327.151 452.083 327.535 451.816 327.918 451.752 328.352 451.892 328.836 452.118 329.616 452.603 329.957 453.347 329.858L456.328 329.43C458.289 329.154 459.55 329.983 460.111 331.919 460.411 332.955 460.305 333.857 459.791 334.625 459.278 335.393 458.403 335.957 457.166 336.316L456.279 336.573C455.041 336.932 454.003 336.93 453.162 336.569 452.321 336.208 451.752 335.517 451.456 334.495L453.271 333.968C453.419 334.479 453.717 334.827 454.164 335.011 454.611 335.194 455.163 335.191 455.822 335L456.71 334.742C457.382 334.547 457.86 334.248 458.144 333.845 458.428 333.442 458.492 332.972 458.336 332.434 458.059 331.479 457.466 331.068 456.557 331.201L453.363 331.646C452.579 331.757 451.903 331.614 451.336 331.217 450.769 330.82 450.363 330.198 450.117 329.351 449.837 328.383 449.949 327.527 450.455 326.783 450.961 326.038 451.798 325.496 452.968 325.157Z" fill-rule="evenodd"/><path d="M464.307 319.221 466.17 318.897 466.727 322.104 471.382 321.294 471.677 322.991 467.022 323.8 468.184 330.483C468.251 330.869 468.419 331.163 468.689 331.365 468.958 331.567 469.279 331.635 469.652 331.571L472.962 330.995 473.257 332.692 469.947 333.267C469.009 333.43 468.21 333.289 467.549 332.842 466.889 332.396 466.48 331.717 466.322 330.807L465.16 324.124 461.891 324.692 461.596 322.996 464.865 322.428Z" fill-rule="evenodd"/><path d="M481.513 320.19C482.715 320.115 483.663 320.417 484.358 321.095 485.053 321.774 485.441 322.778 485.525 324.105L485.586 325.09 483.7 325.208 483.638 324.223C483.533 322.546 482.663 321.759 481.029 321.862 480.204 321.913 479.59 322.19 479.187 322.692 478.784 323.195 478.61 323.893 478.666 324.787L479.125 332.123 477.239 332.241 476.517 320.713 478.403 320.595 478.541 322.796 478.583 322.793C478.634 322.047 478.912 321.44 479.416 320.974 479.92 320.507 480.619 320.246 481.513 320.19Z" fill-rule="evenodd"/><path d="M494.113 321.687C493.26 321.647 492.588 321.865 492.096 322.339 491.605 322.814 491.338 323.506 491.295 324.415L491.268 325.002 496.638 325.253 496.665 324.665C496.708 323.756 496.506 323.043 496.061 322.524 495.616 322.006 494.967 321.727 494.113 321.687ZM494.186 320.135C495.095 320.177 495.88 320.396 496.541 320.791 497.203 321.187 497.707 321.722 498.054 322.397 498.401 323.072 498.553 323.857 498.511 324.752L498.415 326.807 491.199 326.471 491.148 327.561C491.109 328.414 491.322 329.101 491.788 329.62 492.254 330.139 492.893 330.418 493.704 330.456 494.403 330.488 494.987 330.379 495.454 330.127 495.921 329.876 496.214 329.522 496.334 329.065L498.222 329.153C498.051 330.112 497.547 330.856 496.709 331.384 495.872 331.913 494.845 332.149 493.628 332.092 492.271 332.029 491.196 331.569 490.402 330.712 489.608 329.855 489.245 328.706 489.312 327.265L489.439 324.538C489.507 323.098 489.975 321.988 490.846 321.209 491.716 320.43 492.829 320.072 494.186 320.135Z" fill-rule="evenodd"/><path d="M507.615 323.043C506.771 322.911 506.079 323.054 505.539 323.472 504.998 323.891 504.658 324.55 504.517 325.449L504.426 326.03 509.737 326.861 509.828 326.28C509.969 325.381 509.846 324.65 509.46 324.086 509.073 323.523 508.458 323.175 507.615 323.043ZM507.855 321.508C508.754 321.648 509.511 321.951 510.125 322.416 510.74 322.88 511.183 323.467 511.455 324.175 511.726 324.884 511.793 325.681 511.654 326.566L511.336 328.599 504.199 327.482 504.03 328.561C503.898 329.404 504.035 330.11 504.443 330.677 504.85 331.243 505.454 331.59 506.257 331.715 506.948 331.823 507.54 331.778 508.032 331.579 508.523 331.379 508.853 331.059 509.022 330.618L510.889 330.91C510.615 331.845 510.033 332.53 509.143 332.964 508.253 333.399 507.207 333.522 506.003 333.333 504.662 333.123 503.643 332.549 502.946 331.611 502.25 330.673 502.013 329.492 502.237 328.067L502.659 325.37C502.882 323.946 503.468 322.893 504.418 322.213 505.368 321.533 506.513 321.297 507.855 321.508Z" fill-rule="evenodd"/><path d="M520.152 320.888 521.977 321.379 521.131 324.522 525.694 325.75 525.246 327.413 520.684 326.185 518.92 332.735C518.818 333.113 518.847 333.451 519.006 333.748 519.166 334.044 519.428 334.242 519.793 334.34L523.038 335.213 522.59 336.876 519.345 336.003C518.426 335.755 517.761 335.29 517.351 334.607 516.94 333.923 516.855 333.136 517.095 332.243L518.858 325.694 515.655 324.831 516.102 323.168 519.306 324.031Z" fill-rule="evenodd"/><path d="M540.162 324.572 539.498 326.274C538.587 326.144 537.715 326.232 536.882 326.538 536.049 326.845 535.307 327.341 534.657 328.026 534.006 328.712 533.48 329.57 533.078 330.6L531.705 334.122C531.309 335.139 531.116 336.124 531.129 337.075 531.141 338.027 531.35 338.897 531.756 339.687 532.162 340.476 532.744 341.131 533.503 341.652L532.839 343.354C531.136 342.21 530.033 340.773 529.527 339.043 529.022 337.313 529.161 335.444 529.944 333.435L531.317 329.914C532.101 327.905 533.263 326.435 534.806 325.504 536.349 324.572 538.134 324.262 540.162 324.572Z" fill-rule="evenodd"/><path d="M546.214 327.308C547.78 328.633 548.719 330.182 549.031 331.957 549.343 333.732 548.999 335.574 547.999 337.485L546.247 340.834C545.248 342.745 543.93 344.078 542.295 344.834 540.659 345.59 538.85 345.702 536.869 345.171L537.716 343.552C538.619 343.788 539.499 343.798 540.354 343.582 541.21 343.366 542 342.95 542.726 342.334 543.451 341.718 544.066 340.926 544.573 339.958L546.325 336.609C546.837 335.629 547.138 334.668 547.228 333.728 547.317 332.787 547.206 331.903 546.896 331.077 546.585 330.251 546.076 329.534 545.367 328.926Z" fill-rule="evenodd"/><path d="M381.808 410.053C381.99 408.906 382.487 408.049 383.3 407.483 384.112 406.917 385.127 406.73 386.344 406.923L394.018 408.139 393.722 410.006 386.38 408.843C385.509 408.705 384.807 408.817 384.275 409.179 383.743 409.541 383.417 410.095 383.299 410.842 383.176 411.617 383.322 412.267 383.734 412.793 384.147 413.319 384.796 413.652 385.681 413.792L392.94 414.942 392.645 416.809 381.237 415.002 381.533 413.135 383.71 413.48 383.714 413.459C382.969 413.242 382.43 412.838 382.099 412.247 381.767 411.656 381.67 410.924 381.808 410.053Z" fill-rule="evenodd"/><path d="M390.379 399.658C390.219 400.253 390.269 400.785 390.528 401.252 390.787 401.72 391.214 402.034 391.809 402.193 392.431 402.359 392.977 402.284 393.445 401.968 393.914 401.651 394.246 401.128 394.442 400.398 394.681 399.505 394.654 398.737 394.363 398.094 394.071 397.451 393.553 397.029 392.809 396.83L391.247 396.412ZM384.567 397.168C384.929 395.815 385.531 394.864 386.374 394.314 387.217 393.765 388.22 393.645 389.383 393.957L397.051 396.009 396.568 397.814 394.539 397.271 394.528 397.312C395.189 397.605 395.641 398.095 395.884 398.784 396.128 399.472 396.121 400.296 395.864 401.256 395.556 402.406 394.991 403.233 394.167 403.737 393.344 404.241 392.412 404.354 391.37 404.076 390.681 403.891 390.12 403.574 389.69 403.126 389.259 402.677 388.973 402.137 388.83 401.504 388.688 400.872 388.713 400.198 388.904 399.481L389.827 396.032 388.955 395.799C387.508 395.411 386.573 396.009 386.149 397.591 385.961 398.295 385.938 398.897 386.079 399.398 386.22 399.9 386.517 400.226 386.969 400.376L386.481 402.202C385.62 401.899 385.002 401.295 384.628 400.391 384.254 399.486 384.234 398.412 384.567 397.168Z" fill-rule="evenodd"/><path d="M388.269 385.473C388.45 385.002 388.74 384.656 389.139 384.434 389.539 384.212 390.002 384.12 390.528 384.156L390.535 384.137C390.1 383.865 389.806 383.516 389.654 383.091 389.502 382.665 389.521 382.204 389.712 381.707 389.977 381.014 390.447 380.561 391.121 380.347 391.795 380.133 392.544 380.184 393.368 380.499L401.565 383.639 400.934 385.286 392.717 382.139C392.286 381.974 391.902 381.947 391.567 382.058 391.232 382.17 390.995 382.409 390.854 382.775 390.719 383.128 390.736 383.456 390.904 383.761 391.072 384.065 391.372 384.3 391.804 384.465L400.04 387.62 399.484 389.071 391.267 385.924C390.836 385.758 390.453 385.732 390.118 385.843 389.783 385.955 389.547 386.187 389.412 386.54 389.272 386.906 389.286 387.241 389.454 387.546 389.623 387.85 389.923 388.085 390.354 388.25L398.591 391.405 397.96 393.052 387.174 388.921 387.76 387.391 389.191 387.939 389.206 387.9C388.747 387.65 388.429 387.307 388.251 386.871 388.073 386.436 388.079 385.969 388.269 385.473Z" fill-rule="evenodd"/><path d="M395.718 372.312C395.331 373.074 395.253 373.776 395.483 374.419 395.714 375.062 396.234 375.59 397.046 376.003L397.57 376.269 400.006 371.477 399.482 371.21C398.671 370.798 397.937 370.688 397.282 370.881 396.626 371.074 396.105 371.551 395.718 372.312ZM394.333 371.608C394.745 370.797 395.267 370.171 395.899 369.731 396.532 369.29 397.227 369.051 397.984 369.012 398.742 368.973 399.521 369.157 400.319 369.563L402.154 370.496 398.88 376.935 399.854 377.43C400.615 377.817 401.328 377.905 401.993 377.693 402.658 377.482 403.175 377.014 403.543 376.29 403.86 375.666 404 375.089 403.963 374.56 403.926 374.031 403.723 373.618 403.356 373.321L404.212 371.636C405.017 372.186 405.487 372.952 405.625 373.933 405.762 374.913 405.555 375.947 405.003 377.032 404.388 378.243 403.526 379.034 402.419 379.405 401.311 379.777 400.115 379.636 398.829 378.982L396.395 377.745C395.11 377.092 394.291 376.208 393.938 375.094 393.586 373.981 393.717 372.819 394.333 371.608Z" fill-rule="evenodd"/><path d="M398.342 353.271 399.875 354.264C399.564 355.13 399.474 356.002 399.606 356.88 399.738 357.758 400.073 358.585 400.613 359.36 401.153 360.136 401.887 360.825 402.815 361.426L405.987 363.483C406.903 364.077 407.828 364.464 408.763 364.644 409.697 364.825 410.592 364.796 411.447 364.558 412.302 364.32 413.061 363.882 413.725 363.244L415.258 364.238C413.793 365.674 412.162 366.465 410.366 366.61 408.57 366.755 406.768 366.242 404.959 365.069L401.787 363.012C399.978 361.839 398.773 360.403 398.173 358.704 397.573 357.005 397.629 355.194 398.342 353.271Z" fill-rule="evenodd"/><path d="M402.202 347.933C403.811 346.66 405.516 346.046 407.317 346.091 409.119 346.137 410.857 346.838 412.532 348.196L415.468 350.576C417.143 351.934 418.189 353.489 418.606 355.242 419.024 356.995 418.776 358.79 417.863 360.628L416.444 359.477C416.854 358.638 417.038 357.778 416.995 356.896 416.953 356.015 416.701 355.158 416.241 354.325 415.781 353.492 415.126 352.732 414.278 352.044L411.342 349.664C410.482 348.968 409.601 348.483 408.696 348.209 407.792 347.935 406.904 347.869 406.033 348.01 405.161 348.151 404.358 348.509 403.622 349.083Z" fill-rule="evenodd"/><path d="M526.536 497.444 414.5 324.5" stroke="#000000" stroke-width="1.33333" stroke-miterlimit="8" fill="none" fill-rule="evenodd"/><path d="M0 0 152.927 145.63" stroke="#000000" stroke-width="1.33333" stroke-miterlimit="8" fill="none" fill-rule="evenodd" transform="matrix(-1 0 0 1 582.427 337.5)"/><path d="M0 0 216.271 12.2261" stroke="#000000" stroke-width="1.33333" stroke-miterlimit="8" fill="none" fill-rule="evenodd" transform="matrix(-1 0 0 1 573.771 426.5)"/><text font-family="JetBrains Mono,JetBrains Mono_MSFontService,sans-serif" font-weight="400" font-size="24" transform="translate(467.147 531)">...</text><path d="M405.5 427C405.5 382.541 443.332 346.5 490 346.5 536.668 346.5 574.5 382.541 574.5 427 574.5 471.459 536.668 507.5 490 507.5 443.332 507.5 405.5 471.459 405.5 427Z" stroke="#172C51" stroke-width="1.33333" stroke-miterlimit="8" fill="#F2F2F2" fill-rule="evenodd"/><text font-family="JetBrains Mono,JetBrains Mono_MSFontService,sans-serif" font-weight="400" font-size="24" transform="translate(431.743 389)">Customer</text><text font-family="JetBrains Mono,JetBrains Mono_MSFontService,sans-serif" font-weight="400" font-size="19" transform="translate(438.99 413)">-</text><text font-family="JetBrains Mono,JetBrains Mono_MSFontService,sans-serif" font-weight="400" font-size="19" transform="translate(450.156 413)">name</text><text font-family="JetBrains Mono,JetBrains Mono_MSFontService,sans-serif" font-weight="400" font-size="19" transform="translate(438.99 436)">-</text><text font-family="JetBrains Mono,JetBrains Mono_MSFontService,sans-serif" font-weight="400" font-size="19" transform="translate(450.156 436)">street</text><text font-family="JetBrains Mono,JetBrains Mono_MSFontService,sans-serif" font-weight="400" font-size="19" transform="translate(438.99 458)">-</text><text font-family="JetBrains Mono,JetBrains Mono_MSFontService,sans-serif" font-weight="400" font-size="19" transform="translate(450.156 458)">city</text><text font-family="JetBrains Mono,JetBrains Mono_MSFontService,sans-serif" font-weight="400" font-size="19" transform="translate(438.99 480)">-</text><text font-family="JetBrains Mono,JetBrains Mono_MSFontService,sans-serif" font-weight="400" font-size="19" transform="translate(450.156 480)">state</text><path d="M35.5001 506.5C35.5001 431.942 98.8518 371.5 177 371.5 255.148 371.5 318.5 431.942 318.5 506.5 318.5 581.058 255.148 641.5 177 641.5 98.8518 641.5 35.5001 581.058 35.5001 506.5Z" stroke="#172C51" stroke-width="1.33333" stroke-miterlimit="8" fill="#FFFFFF" fill-rule="evenodd"/><text font-family="Calibri,Calibri_MSFontService,sans-serif" font-weight="400" font-size="24" transform="translate(154.308 513)">Data</text><path d="M153.221 399.588C152.428 399.682 151.834 399.96 151.438 400.423 151.041 400.886 150.899 401.59 151.011 402.535L151.406 405.872C151.516 406.803 151.818 407.451 152.312 407.816 152.807 408.18 153.45 408.316 154.243 408.222 155.021 408.13 155.604 407.814 155.991 407.275 156.379 406.736 156.521 406.035 156.419 405.173L156.049 402.045C155.947 401.183 155.645 400.535 155.142 400.101 154.64 399.667 153.999 399.496 153.221 399.588ZM155.111 394.12 156.988 393.898 158.79 409.122 156.913 409.344 156.654 407.154 156.633 407.157C156.624 407.919 156.367 408.545 155.861 409.035 155.355 409.525 154.671 409.821 153.809 409.923 152.669 410.057 151.71 409.783 150.931 409.1 150.153 408.417 149.686 407.422 149.531 406.115L149.134 402.757C148.978 401.437 149.195 400.354 149.786 399.508 150.376 398.663 151.249 398.172 152.403 398.036 153.265 397.934 154.003 398.065 154.617 398.429 155.231 398.793 155.637 399.337 155.836 400.061L155.856 400.059 155.506 397.457Z" fill-rule="evenodd"/><path d="M166.548 398.588C165.737 398.623 165.104 398.882 164.648 399.365 164.193 399.847 163.985 400.536 164.024 401.431L164.158 404.494C164.197 405.389 164.465 406.057 164.961 406.498 165.456 406.939 166.11 407.141 166.921 407.106 167.746 407.07 168.383 406.81 168.831 406.328 169.28 405.846 169.484 405.158 169.445 404.263L169.311 401.199C169.272 400.304 169.008 399.636 168.519 399.195 168.03 398.754 167.373 398.552 166.548 398.588ZM166.475 396.909C167.873 396.848 168.996 397.202 169.842 397.971 170.689 398.739 171.144 399.858 171.208 401.327L171.324 403.97C171.388 405.425 171.028 406.576 170.246 407.423 169.463 408.27 168.379 408.723 166.995 408.784 165.61 408.845 164.491 408.487 163.637 407.712 162.783 406.937 162.325 405.822 162.261 404.367L162.145 401.723C162.081 400.255 162.437 399.101 163.213 398.261 163.989 397.421 165.076 396.971 166.475 396.909Z" fill-rule="evenodd"/><path d="M180.505 396.764C181.667 396.796 182.581 397.177 183.247 397.909 183.914 398.642 184.231 399.623 184.198 400.855L183.989 408.622 182.1 408.571 182.299 401.14C182.323 400.258 182.121 399.577 181.692 399.097 181.264 398.616 180.672 398.365 179.916 398.345 179.133 398.324 178.507 398.552 178.039 399.03 177.571 399.508 177.325 400.194 177.301 401.09L177.104 408.437 175.214 408.387 175.524 396.841 177.414 396.892 177.354 399.096 177.375 399.096C177.494 398.329 177.825 397.743 178.368 397.337 178.911 396.932 179.623 396.741 180.505 396.764Z" fill-rule="evenodd"/><path d="M188.863 397.349 190.744 397.529 190.042 404.846C189.962 405.682 190.121 406.369 190.52 406.906 190.918 407.444 191.501 407.749 192.267 407.823 193.048 407.898 193.688 407.709 194.189 407.258 194.689 406.807 194.979 406.163 195.059 405.327L195.761 398.011 197.643 398.191 196.941 405.507C196.811 406.859 196.304 407.89 195.421 408.6 194.537 409.31 193.433 409.601 192.109 409.474 190.785 409.347 189.764 408.852 189.045 407.988 188.326 407.125 188.031 406.017 188.161 404.665Z" fill-rule="evenodd"/><path d="M205.095 395.958 206.96 396.267 206.428 399.478 211.09 400.249 210.809 401.948 206.147 401.177 205.04 407.869C204.976 408.255 205.038 408.589 205.225 408.868 205.413 409.147 205.694 409.318 206.067 409.38L209.382 409.928 209.1 411.627 205.786 411.079C204.846 410.923 204.139 410.526 203.663 409.887 203.187 409.247 203.024 408.472 203.175 407.56L204.282 400.868 201.009 400.326 201.29 398.628 204.564 399.169Z" fill-rule="evenodd"/><path d="M224.839 397.097 224.417 398.875C223.496 398.872 222.645 399.08 221.862 399.498 221.079 399.916 220.413 400.51 219.863 401.279 219.314 402.048 218.911 402.97 218.656 404.046L217.782 407.724C217.529 408.786 217.475 409.788 217.618 410.728 217.762 411.669 218.089 412.502 218.6 413.228 219.111 413.954 219.779 414.522 220.602 414.934L220.179 416.711C218.335 415.813 217.043 414.542 216.304 412.898 215.565 411.255 215.445 409.384 215.943 407.287L216.817 403.609C217.315 401.512 218.264 399.895 219.663 398.76 221.062 397.625 222.788 397.07 224.839 397.097Z" fill-rule="evenodd"/><path d="M230.748 398.718C232.521 399.751 233.716 401.113 234.332 402.807 234.948 404.5 234.93 406.374 234.278 408.43L233.135 412.033C232.484 414.088 231.418 415.63 229.939 416.659 228.46 417.688 226.698 418.114 224.655 417.935L225.207 416.194C226.138 416.269 227.006 416.125 227.811 415.764 228.616 415.402 229.322 414.855 229.928 414.122 230.535 413.389 231.004 412.502 231.334 411.462L232.476 407.858C232.811 406.804 232.94 405.806 232.864 404.864 232.788 403.922 232.526 403.071 232.076 402.312 231.627 401.553 231 400.935 230.196 400.46Z" fill-rule="evenodd"/><path d="M64.8701 480.973C64.6143 481.729 64.6103 482.385 64.8579 482.942 65.1056 483.499 65.6803 483.929 66.5821 484.234L69.7649 485.311C70.6535 485.612 71.3684 485.617 71.9098 485.327 72.4513 485.038 72.8498 484.515 73.1056 483.759 73.3568 483.016 73.3221 482.354 73.0015 481.773 72.6809 481.191 72.1095 480.762 71.2873 480.483L68.3034 479.474C67.4812 479.196 66.7662 479.19 66.1585 479.458 65.5508 479.725 65.1213 480.23 64.8701 480.973ZM60.7443 476.917 61.3499 475.126 75.8715 480.039 75.2658 481.829 73.1771 481.123 73.1704 481.143C73.8551 481.478 74.31 481.979 74.535 482.646 74.76 483.314 74.7334 484.058 74.4553 484.881 74.0874 485.968 73.4277 486.717 72.4763 487.126 71.5248 487.536 70.4258 487.53 69.1791 487.108L65.9765 486.025C64.7166 485.599 63.8319 484.937 63.3223 484.041 62.8128 483.144 62.7442 482.145 63.1165 481.045 63.3947 480.222 63.8302 479.612 64.423 479.214 65.0158 478.816 65.6816 478.683 66.4204 478.815L66.4271 478.795 63.9271 477.994Z" fill-rule="evenodd"/><path d="M73.4701 471.33C73.2264 471.896 73.1988 472.429 73.3872 472.929 73.5757 473.43 73.9528 473.802 74.5186 474.045 75.1101 474.3 75.6606 474.305 76.1703 474.059 76.6799 473.814 77.0842 473.344 77.3833 472.65 77.7488 471.801 77.8338 471.037 77.6383 470.359 77.4428 469.68 76.9914 469.188 76.2842 468.884L74.7991 468.244ZM68.0796 468.025C68.6334 466.74 69.367 465.886 70.2805 465.464 71.1939 465.041 72.2036 465.068 73.3094 465.545L80.6 468.685 79.8607 470.401 77.932 469.571 77.9153 469.609C78.5268 469.994 78.9031 470.545 79.0443 471.261 79.1855 471.978 79.0595 472.792 78.6664 473.705 78.1957 474.798 77.5165 475.535 76.6288 475.914 75.7412 476.294 74.8023 476.271 73.8122 475.845 73.1565 475.562 72.648 475.168 72.2867 474.662 71.9255 474.156 71.7201 473.579 71.6707 472.933 71.6213 472.287 71.7434 471.623 72.0369 470.942L73.449 467.663 72.6196 467.306C71.2438 466.713 70.2319 467.169 69.584 468.673 69.2961 469.342 69.1856 469.935 69.2527 470.451 69.3198 470.968 69.5664 471.333 69.9925 471.547L69.2449 473.283C68.4369 472.859 67.9132 472.172 67.6741 471.223 67.435 470.274 67.5701 469.208 68.0796 468.025Z" fill-rule="evenodd"/><path d="M70.1328 456.464 71.0116 454.791 73.8933 456.304 76.0904 452.121 77.6149 452.922 75.4178 457.105 81.423 460.259C81.77 460.441 82.1057 460.487 82.43 460.396 82.7543 460.306 83.0044 460.093 83.1801 459.758L84.7425 456.784 86.267 457.584 84.7047 460.559C84.262 461.402 83.6624 461.949 82.9059 462.2 82.1495 462.451 81.3622 462.362 80.5442 461.932L74.539 458.778 72.9962 461.716 71.4717 460.915 73.0145 457.977Z" fill-rule="evenodd"/><path d="M81.6399 445.485C81.1871 446.21 81.0471 446.902 81.2198 447.563 81.3925 448.225 81.8647 448.796 82.6363 449.279L83.1348 449.591 85.9851 445.032 85.4865 444.721C84.715 444.238 83.9942 444.064 83.3241 444.198 82.6541 444.332 82.0926 444.761 81.6399 445.485ZM80.3222 444.662C80.8047 443.89 81.3803 443.313 82.0489 442.93 82.7175 442.547 83.431 442.37 84.1893 442.399 84.9476 442.427 85.7066 442.679 86.4663 443.154L88.2113 444.245 84.3812 450.37 85.3071 450.949C86.0312 451.402 86.7338 451.552 87.415 451.4 88.0962 451.248 88.652 450.828 89.0826 450.139 89.4537 449.546 89.6441 448.984 89.6539 448.453 89.6637 447.923 89.4987 447.494 89.1589 447.166L90.1609 445.563C90.9132 446.182 91.3144 446.986 91.3647 447.975 91.4149 448.964 91.1172 449.975 90.4714 451.008 89.7514 452.159 88.8234 452.871 87.6873 453.143 86.5513 453.415 85.3719 453.169 84.1493 452.404L81.8345 450.957C80.6119 450.193 79.8742 449.24 79.6214 448.099 79.3686 446.959 79.6022 445.813 80.3222 444.662Z" fill-rule="evenodd"/><path d="M85.2959 427.118 86.7677 428.201C86.406 429.047 86.265 429.912 86.3447 430.796 86.4244 431.68 86.711 432.525 87.2043 433.331 87.6977 434.137 88.3899 434.868 89.2809 435.523L92.326 437.763C93.2057 438.41 94.1066 438.851 95.0287 439.086 95.9507 439.321 96.8456 439.345 97.7132 439.157 98.5809 438.97 99.3648 438.577 100.065 437.98L101.537 439.063C99.9896 440.41 98.3153 441.103 96.5138 441.143 94.7123 441.182 92.9431 440.563 91.2063 439.285L88.1611 437.046C86.4243 435.769 85.3062 434.264 84.8069 432.533 84.3077 430.801 84.4707 428.997 85.2959 427.118Z" fill-rule="evenodd"/><path d="M88.9646 422.494C90.611 421.27 92.3338 420.708 94.133 420.807 95.9322 420.907 97.6483 421.661 99.2814 423.069L102.145 425.536C103.778 426.944 104.776 428.53 105.141 430.295 105.505 432.06 105.203 433.847 104.235 435.656L102.851 434.463C103.286 433.636 103.496 432.782 103.48 431.9 103.464 431.017 103.239 430.153 102.804 429.307 102.369 428.461 101.738 427.681 100.911 426.968L98.0475 424.5C97.2097 423.778 96.3429 423.267 95.447 422.966 94.5512 422.665 93.6658 422.572 92.7908 422.686 91.9158 422.801 91.1017 423.134 90.3485 423.686Z" fill-rule="evenodd"/><path d="M202.083 574.681 108.5 388.5" stroke="#000000" stroke-width="1.33333" stroke-miterlimit="8" fill="none" fill-rule="evenodd"/><path d="M277.294 601.916 117.5 450.5" stroke="#000000" stroke-width="1.33333" stroke-miterlimit="8" fill="none" fill-rule="evenodd"/><path d="M261.483 507.253 35.5001 506.5" stroke="#000000" stroke-width="1.33333" stroke-miterlimit="8" fill="none" fill-rule="evenodd"/><text font-family="JetBrains Mono,JetBrains Mono_MSFontService,sans-serif" font-weight="400" font-size="24" transform="matrix(0.646243 0.763132 -0.763132 0.646243 66.3007 549)">...</text><path d="M280.213 454.043C279.983 453.279 279.606 452.742 279.081 452.432 278.556 452.122 277.838 452.105 276.927 452.379L273.709 453.348C272.811 453.618 272.226 454.028 271.953 454.578 271.68 455.129 271.658 455.786 271.888 456.55 272.114 457.3 272.526 457.82 273.125 458.107 273.723 458.395 274.438 458.414 275.269 458.164L278.285 457.255C279.116 457.005 279.702 456.595 280.042 456.025 280.382 455.454 280.439 454.794 280.213 454.043ZM285.927 454.955 286.471 456.765 271.792 461.184 271.247 459.374 273.359 458.739 273.353 458.719C272.601 458.843 271.939 458.698 271.369 458.285 270.799 457.872 270.388 457.25 270.138 456.419 269.807 455.319 269.91 454.327 270.448 453.441 270.986 452.556 271.884 451.923 273.144 451.544L276.382 450.569C277.655 450.186 278.76 450.212 279.695 450.646 280.63 451.081 281.265 451.855 281.6 452.968 281.85 453.799 281.849 454.549 281.597 455.217 281.345 455.885 280.88 456.379 280.202 456.7L280.208 456.72 282.709 455.923Z" fill-rule="evenodd"/><path d="M283.649 467.008C283.469 466.173 283.086 465.579 282.502 465.225 281.917 464.872 281.18 464.791 280.29 464.983L279.715 465.107 280.85 470.362 281.425 470.238C282.314 470.046 282.953 469.668 283.339 469.105 283.726 468.542 283.829 467.843 283.649 467.008ZM285.168 466.68C285.36 467.569 285.35 468.384 285.138 469.125 284.925 469.865 284.537 470.49 283.974 470.998 283.41 471.507 282.691 471.855 281.815 472.044L279.803 472.479 278.279 465.418 277.211 465.648C276.376 465.828 275.768 466.21 275.385 466.794 275.003 467.378 274.898 468.067 275.069 468.861 275.217 469.545 275.472 470.08 275.835 470.468 276.198 470.855 276.615 471.047 277.088 471.046L277.487 472.893C276.516 472.974 275.667 472.677 274.942 472.003 274.216 471.329 273.725 470.397 273.468 469.206 273.181 467.879 273.35 466.722 273.975 465.735 274.6 464.747 275.617 464.102 277.026 463.797L279.695 463.221C281.104 462.917 282.297 463.085 283.274 463.727 284.25 464.368 284.882 465.353 285.168 466.68Z" fill-rule="evenodd"/><path d="M290.274 473.81 291.087 479.634 279.128 481.302C278.656 481.368 278.304 481.552 278.07 481.853 277.836 482.154 277.751 482.526 277.812 482.97L278.306 486.506 276.6 486.744 276.107 483.208C275.966 482.196 276.148 481.347 276.653 480.662 277.158 479.976 277.896 479.566 278.866 479.431L289.12 478 288.569 474.048Z" fill-rule="evenodd"/><path d="M288.425 489.2 288.803 494.752 278.998 495.42 279.262 499.296 277.544 499.413 276.873 489.566 278.591 489.449 278.869 493.534 286.956 492.983 286.707 489.317ZM293.48 493.275C293.512 493.736 293.414 494.108 293.188 494.39 292.962 494.672 292.639 494.827 292.22 494.856 291.815 494.883 291.485 494.773 291.229 494.523 290.974 494.274 290.83 493.919 290.799 493.458 290.767 492.997 290.861 492.626 291.081 492.344 291.3 492.063 291.612 491.908 292.017 491.881 292.436 491.852 292.777 491.962 293.04 492.211 293.302 492.46 293.449 492.814 293.48 493.275Z" fill-rule="evenodd"/><path d="M289.164 501.498 289.163 503.535 281.391 506.049C280.929 506.203 280.484 506.336 280.057 506.447 279.63 506.559 279.298 506.643 279.06 506.699 279.297 506.769 279.63 506.853 280.057 506.951 280.484 507.05 280.928 507.169 281.39 507.309L289.158 509.835 289.157 511.83 277.61 507.895 277.611 505.417Z" fill-rule="evenodd"/><path d="M287.36 519.954C287.419 519.102 287.217 518.425 286.754 517.923 286.29 517.421 285.605 517.138 284.697 517.075L284.11 517.035 283.739 522.398 284.326 522.438C285.233 522.501 285.951 522.316 286.48 521.882 287.008 521.449 287.301 520.806 287.36 519.954ZM288.911 520.061C288.848 520.969 288.611 521.749 288.201 522.401 287.791 523.054 287.245 523.546 286.562 523.877 285.88 524.209 285.092 524.344 284.198 524.282L282.145 524.14 282.644 516.933 281.554 516.858C280.702 516.799 280.012 516.996 279.482 517.451 278.952 517.905 278.659 518.538 278.603 519.348 278.555 520.046 278.651 520.632 278.892 521.104 279.133 521.577 279.481 521.878 279.935 522.008L279.804 523.894C278.849 523.701 278.117 523.18 277.607 522.331 277.098 521.482 276.885 520.45 276.969 519.235 277.063 517.88 277.547 516.815 278.422 516.041 279.296 515.266 280.453 514.929 281.892 515.029L284.615 515.217C286.054 515.317 287.153 515.81 287.912 516.698 288.672 517.585 289.004 518.707 288.911 520.061Z" fill-rule="evenodd"/><path d="M287.387 534.447C287.221 535.639 286.736 536.508 285.932 537.053 285.128 537.599 284.067 537.78 282.75 537.596L281.773 537.46 282.033 535.588 283.011 535.724C284.675 535.956 285.62 535.261 285.846 533.638 285.96 532.82 285.811 532.163 285.399 531.668 284.987 531.172 284.338 530.863 283.451 530.739L276.171 529.725 276.431 527.854 287.871 529.447 287.61 531.318 285.426 531.014 285.421 531.056C286.142 531.255 286.681 531.648 287.037 532.235 287.394 532.822 287.51 533.559 287.387 534.447Z" fill-rule="evenodd"/><path d="M290.132 551.677 288.346 551.292C288.329 550.372 288.104 549.525 287.669 548.751 287.234 547.977 286.627 547.323 285.846 546.79 285.066 546.257 284.135 545.874 283.054 545.641L279.359 544.845C278.292 544.615 277.289 544.581 276.352 544.745 275.414 544.908 274.588 545.252 273.873 545.779 273.158 546.305 272.604 546.984 272.21 547.816L270.424 547.431C271.284 545.568 272.527 544.25 274.154 543.476 275.782 542.703 277.649 542.543 279.757 542.997L283.452 543.793C285.56 544.247 287.196 545.162 288.361 546.537 289.525 547.912 290.116 549.625 290.132 551.677Z" fill-rule="evenodd"/><path d="M288.596 557.705C287.59 559.493 286.245 560.707 284.561 561.348 282.876 561.989 281.002 561.998 278.938 561.377L275.318 560.287C273.254 559.666 271.696 558.623 270.646 557.159 269.595 555.695 269.144 553.94 269.292 551.894L271.041 552.42C270.98 553.352 271.136 554.218 271.509 555.018 271.883 555.817 272.44 556.515 273.182 557.111 273.924 557.707 274.817 558.163 275.863 558.477L279.482 559.567C280.541 559.886 281.541 560 282.482 559.911 283.423 559.821 284.27 559.546 285.022 559.086 285.775 558.625 286.383 557.989 286.847 557.179Z" fill-rule="evenodd"/><path d="M150.112 608.169C151.44 608.238 152.494 608.649 153.276 609.405 154.057 610.16 154.436 611.154 154.415 612.387L152.527 612.289C152.524 611.546 152.301 610.963 151.861 610.541 151.42 610.119 150.808 609.887 150.025 609.847 149.2 609.804 148.527 610.004 148.007 610.447 147.486 610.89 147.204 611.544 147.159 612.411L146.995 615.578C146.951 616.445 147.164 617.129 147.636 617.63 148.108 618.131 148.756 618.403 149.581 618.445 150.364 618.486 150.996 618.315 151.479 617.933 151.961 617.552 152.242 616.999 152.322 616.274L154.209 616.371C154.103 617.599 153.623 618.549 152.769 619.22 151.914 619.891 150.822 620.192 149.494 620.123 148.096 620.051 146.998 619.602 146.199 618.775 145.401 617.949 145.037 616.851 145.108 615.481L145.27 612.335C145.341 610.965 145.816 609.91 146.695 609.17 147.575 608.43 148.713 608.097 150.112 608.169Z" fill-rule="evenodd"/><path d="M161.408 614.677C160.792 614.683 160.294 614.874 159.913 615.249 159.532 615.625 159.345 616.12 159.351 616.736 159.358 617.38 159.577 617.885 160.008 618.252 160.439 618.618 161.033 618.797 161.789 618.789 162.713 618.779 163.445 618.547 163.986 618.093 164.527 617.64 164.794 617.028 164.786 616.258L164.768 614.641ZM162.244 608.41C163.644 608.395 164.722 608.719 165.478 609.383 166.234 610.047 166.619 610.981 166.632 612.185L166.717 620.122 164.848 620.142 164.826 618.042 164.784 618.043C164.679 618.758 164.328 619.325 163.731 619.745 163.133 620.164 162.338 620.379 161.344 620.39 160.154 620.403 159.205 620.08 158.498 619.423 157.791 618.765 157.432 617.898 157.42 616.82 157.412 616.106 157.567 615.481 157.883 614.946 158.199 614.41 158.643 613.989 159.214 613.682 159.784 613.375 160.441 613.217 161.183 613.209L164.752 613.171 164.743 612.268C164.727 610.77 163.9 610.03 162.262 610.047 161.534 610.055 160.947 610.195 160.502 610.465 160.057 610.736 159.823 611.11 159.8 611.586L157.91 611.606C157.97 610.696 158.386 609.939 159.156 609.335 159.927 608.732 160.956 608.423 162.244 608.41Z" fill-rule="evenodd"/><path d="M175.169 607.893C176.328 607.816 177.274 608.111 178.006 608.778 178.738 609.444 179.145 610.392 179.227 611.622L179.744 619.375 177.858 619.5 177.364 612.083C177.305 611.203 177.04 610.543 176.569 610.105 176.097 609.666 175.485 609.472 174.73 609.522 173.948 609.574 173.346 609.86 172.925 610.379 172.504 610.898 172.323 611.605 172.382 612.499L172.871 619.833 170.985 619.958 170.217 608.434 172.103 608.308 172.25 610.508 172.27 610.507C172.317 609.732 172.592 609.118 173.095 608.663 173.598 608.209 174.289 607.952 175.169 607.893Z" fill-rule="evenodd"/><path d="M187.061 606.772C188.382 606.615 189.491 606.842 190.389 607.454 191.287 608.067 191.829 608.982 192.017 610.2L190.14 610.424C190.01 609.692 189.693 609.155 189.187 608.814 188.681 608.472 188.039 608.348 187.26 608.44 186.44 608.538 185.811 608.849 185.373 609.374 184.935 609.898 184.767 610.591 184.87 611.453L185.245 614.602C185.348 615.464 185.674 616.102 186.224 616.516 186.773 616.93 187.458 617.088 188.279 616.99 189.057 616.897 189.652 616.622 190.062 616.164 190.473 615.706 190.656 615.114 190.612 614.386L192.489 614.162C192.593 615.391 192.28 616.408 191.552 617.213 190.823 618.019 189.798 618.501 188.477 618.658 187.087 618.824 185.929 618.567 185.002 617.888 184.075 617.209 183.53 616.188 183.368 614.826L182.995 611.698C182.833 610.335 183.123 609.215 183.864 608.338 184.605 607.46 185.671 606.938 187.061 606.772Z" fill-rule="evenodd"/><path d="M199.358 606.566C198.516 606.71 197.906 607.065 197.527 607.634 197.148 608.203 197.035 608.936 197.188 609.833L197.286 610.412 202.586 609.511 202.487 608.931C202.335 608.034 201.986 607.38 201.44 606.968 200.894 606.557 200.2 606.423 199.358 606.566ZM199.098 605.034C199.995 604.882 200.809 604.928 201.539 605.173 202.269 605.418 202.876 605.833 203.359 606.418 203.842 607.003 204.159 607.738 204.309 608.621L204.654 610.65 197.533 611.862 197.716 612.938C197.859 613.78 198.214 614.405 198.78 614.813 199.347 615.22 200.03 615.356 200.831 615.22 201.521 615.102 202.067 614.871 202.47 614.526 202.873 614.18 203.084 613.771 203.103 613.3L204.966 612.983C205.004 613.956 204.67 614.79 203.965 615.485 203.259 616.181 202.306 616.63 201.106 616.835 199.767 617.062 198.618 616.843 197.66 616.175 196.701 615.507 196.101 614.463 195.859 613.041L195.401 610.35C195.159 608.928 195.38 607.744 196.064 606.797 196.748 605.85 197.759 605.262 199.098 605.034Z" fill-rule="evenodd"/><path d="M204.964 600.401 210.702 599.114 213.345 610.896C213.449 611.36 213.661 611.696 213.98 611.905 214.299 612.113 214.678 612.168 215.115 612.07L218.598 611.288 218.975 612.969 215.492 613.75C214.495 613.974 213.634 613.862 212.909 613.415 212.185 612.967 211.715 612.266 211.501 611.309L209.235 601.208 205.341 602.081Z" fill-rule="evenodd"/><path d="M225.408 592.891 225.907 594.648C225.103 595.095 224.461 595.692 223.982 596.439 223.503 597.187 223.211 598.03 223.107 598.969 223.003 599.908 223.101 600.91 223.404 601.974L224.436 605.61C224.735 606.66 225.176 607.561 225.76 608.312 226.345 609.063 227.037 609.63 227.837 610.014 228.638 610.398 229.498 610.569 230.417 610.526L230.916 612.284C228.868 612.4 227.12 611.921 225.673 610.847 224.225 609.774 223.207 608.2 222.618 606.126L221.585 602.49C220.996 600.416 221.036 598.542 221.703 596.868 222.37 595.194 223.605 593.868 225.408 592.891Z" fill-rule="evenodd"/><path d="M229.394 591.64C231.431 591.396 233.206 591.764 234.717 592.745 236.229 593.726 237.344 595.233 238.061 597.266L239.32 600.83C240.037 602.863 240.115 604.736 239.554 606.448 238.993 608.161 237.844 609.561 236.105 610.65L235.497 608.927C236.285 608.426 236.891 607.789 237.316 607.016 237.741 606.242 237.975 605.38 238.018 604.43 238.061 603.479 237.901 602.489 237.537 601.459L236.279 597.895C235.911 596.852 235.413 595.977 234.785 595.271 234.157 594.565 233.435 594.044 232.619 593.708 231.803 593.373 230.931 593.258 230.003 593.363Z" fill-rule="evenodd"/><path d="M0 0 159.794 152.922" stroke="#000000" stroke-width="1.33333" stroke-miterlimit="8" fill="none" fill-rule="evenodd" transform="matrix(1 0 0 -1 117.5 564.422)"/><path d="M0 0 106.593 186.876" stroke="#000000" stroke-width="1.33333" stroke-miterlimit="8" fill="none" fill-rule="evenodd" transform="matrix(1 0 0 -1 102.5 621.376)"/><path d="M92.5001 507C92.5001 462.541 130.332 426.5 177 426.5 223.668 426.5 261.5 462.541 261.5 507 261.5 551.459 223.668 587.5 177 587.5 130.332 587.5 92.5001 551.459 92.5001 507Z" stroke="#172C51" stroke-width="1.33333" stroke-miterlimit="8" fill="#F2F2F2" fill-rule="evenodd"/><text font-family="JetBrains Mono,JetBrains Mono_MSFontService,sans-serif" font-weight="400" font-size="24" transform="translate(141.056 469)">Order</text><text font-family="JetBrains Mono,JetBrains Mono_MSFontService,sans-serif" font-weight="400" font-size="19" transform="translate(126.81 493)">-</text><text font-family="JetBrains Mono,JetBrains Mono_MSFontService,sans-serif" font-weight="400" font-size="19" transform="translate(137.976 493)">donut</text><text font-family="JetBrains Mono,JetBrains Mono_MSFontService,sans-serif" font-weight="400" font-size="19" transform="translate(126.81 516)">-</text><text font-family="JetBrains Mono,JetBrains Mono_MSFontService,sans-serif" font-weight="400" font-size="19" transform="translate(137.976 516)">quantity</text><text font-family="JetBrains Mono,JetBrains Mono_MSFontService,sans-serif" font-weight="400" font-size="19" transform="translate(126.81 538)">-</text><text font-family="JetBrains Mono,JetBrains Mono_MSFontService,sans-serif" font-weight="400" font-size="19" transform="translate(137.976 538)">date</text><text font-family="JetBrains Mono,JetBrains Mono_MSFontService,sans-serif" font-weight="400" font-size="19" transform="translate(126.81 560)">-</text><text font-family="JetBrains Mono,JetBrains Mono_MSFontService,sans-serif" font-weight="400" font-size="19" transform="translate(137.976 560)">statu</text><text font-family="JetBrains Mono,JetBrains Mono_MSFontService,sans-serif" font-weight="400" font-size="19" transform="translate(193.81 560)">s</text></g></svg>